%TF.GenerationSoftware,KiCad,Pcbnew,10.0.3*%
%TF.CreationDate,2026-08-13T10:14:14-04:00*%
%TF.ProjectId,Macropad,4d616372-6f70-4616-942e-6b696361645f,rev?*%
%TF.SameCoordinates,Original*%
%TF.FileFunction,Legend,Bot*%
%TF.FilePolarity,Positive*%
%FSLAX46Y46*%
G04 Gerber Fmt 4.6, Leading zero omitted, Abs format (unit mm)*
G04 Created by KiCad (PCBNEW 10.0.3) date 2026-08-13 10:14:14*
%MOMM*%
%LPD*%
G01*
G04 APERTURE LIST*
G04 Aperture macros list*
%AMRoundRect*
0 Rectangle with rounded corners*
0 $1 Rounding radius*
0 $2 $3 $4 $5 $6 $7 $8 $9 X,Y pos of 4 corners*
0 Add a 4 corners polygon primitive as box body*
4,1,4,$2,$3,$4,$5,$6,$7,$8,$9,$2,$3,0*
0 Add four circle primitives for the rounded corners*
1,1,$1+$1,$2,$3*
1,1,$1+$1,$4,$5*
1,1,$1+$1,$6,$7*
1,1,$1+$1,$8,$9*
0 Add four rect primitives between the rounded corners*
20,1,$1+$1,$2,$3,$4,$5,0*
20,1,$1+$1,$4,$5,$6,$7,0*
20,1,$1+$1,$6,$7,$8,$9,0*
20,1,$1+$1,$8,$9,$2,$3,0*%
G04 Aperture macros list end*
%ADD10C,0.101600*%
%ADD11C,0.150000*%
%ADD12C,0.100000*%
%ADD13C,0.127000*%
%ADD14C,0.120000*%
%ADD15C,0.254000*%
%ADD16C,0.025400*%
%ADD17RoundRect,0.250000X-0.550000X0.550000X-0.550000X-0.550000X0.550000X-0.550000X0.550000X0.550000X0*%
%ADD18C,1.600000*%
%ADD19C,1.700000*%
%ADD20C,4.000000*%
%ADD21C,2.200000*%
%ADD22RoundRect,0.250000X0.550000X-0.550000X0.550000X0.550000X-0.550000X0.550000X-0.550000X-0.550000X0*%
%ADD23R,2.000000X2.000000*%
%ADD24C,2.000000*%
%ADD25R,3.200000X2.000000*%
%ADD26RoundRect,0.082000X-0.718000X0.328000X-0.718000X-0.328000X0.718000X-0.328000X0.718000X0.328000X0*%
%ADD27RoundRect,0.250000X-0.550000X-0.550000X0.550000X-0.550000X0.550000X0.550000X-0.550000X0.550000X0*%
%ADD28RoundRect,0.250000X0.550000X0.550000X-0.550000X0.550000X-0.550000X-0.550000X0.550000X-0.550000X0*%
%ADD29R,3.500000X1.700000*%
%ADD30O,3.600000X1.700000*%
%ADD31O,3.700000X1.700000*%
%ADD32RoundRect,0.170000X0.680000X-0.680000X0.680000X0.680000X-0.680000X0.680000X-0.680000X-0.680000X0*%
G04 APERTURE END LIST*
D10*
X146252333Y-61336985D02*
X146252333Y-62056652D01*
X146252333Y-62056652D02*
X146210000Y-62141318D01*
X146210000Y-62141318D02*
X146167666Y-62183652D01*
X146167666Y-62183652D02*
X146083000Y-62225985D01*
X146083000Y-62225985D02*
X145913666Y-62225985D01*
X145913666Y-62225985D02*
X145829000Y-62183652D01*
X145829000Y-62183652D02*
X145786666Y-62141318D01*
X145786666Y-62141318D02*
X145744333Y-62056652D01*
X145744333Y-62056652D02*
X145744333Y-61336985D01*
X144855333Y-62225985D02*
X145363333Y-62225985D01*
X145109333Y-62225985D02*
X145109333Y-61336985D01*
X145109333Y-61336985D02*
X145194000Y-61463985D01*
X145194000Y-61463985D02*
X145278667Y-61548652D01*
X145278667Y-61548652D02*
X145363333Y-61590985D01*
D11*
X147798808Y-59374819D02*
X147132142Y-60374819D01*
X147132142Y-59374819D02*
X147798808Y-60374819D01*
X146751189Y-60374819D02*
X146751189Y-59374819D01*
X146322618Y-60089104D02*
X145846428Y-60089104D01*
X146417856Y-60374819D02*
X146084523Y-59374819D01*
X146084523Y-59374819D02*
X145751190Y-60374819D01*
X145227380Y-59374819D02*
X145036904Y-59374819D01*
X145036904Y-59374819D02*
X144941666Y-59422438D01*
X144941666Y-59422438D02*
X144846428Y-59517676D01*
X144846428Y-59517676D02*
X144798809Y-59708152D01*
X144798809Y-59708152D02*
X144798809Y-60041485D01*
X144798809Y-60041485D02*
X144846428Y-60231961D01*
X144846428Y-60231961D02*
X144941666Y-60327200D01*
X144941666Y-60327200D02*
X145036904Y-60374819D01*
X145036904Y-60374819D02*
X145227380Y-60374819D01*
X145227380Y-60374819D02*
X145322618Y-60327200D01*
X145322618Y-60327200D02*
X145417856Y-60231961D01*
X145417856Y-60231961D02*
X145465475Y-60041485D01*
X145465475Y-60041485D02*
X145465475Y-59708152D01*
X145465475Y-59708152D02*
X145417856Y-59517676D01*
X145417856Y-59517676D02*
X145322618Y-59422438D01*
X145322618Y-59422438D02*
X145227380Y-59374819D01*
X151136904Y-57727200D02*
X150994047Y-57774819D01*
X150994047Y-57774819D02*
X150755952Y-57774819D01*
X150755952Y-57774819D02*
X150660714Y-57727200D01*
X150660714Y-57727200D02*
X150613095Y-57679580D01*
X150613095Y-57679580D02*
X150565476Y-57584342D01*
X150565476Y-57584342D02*
X150565476Y-57489104D01*
X150565476Y-57489104D02*
X150613095Y-57393866D01*
X150613095Y-57393866D02*
X150660714Y-57346247D01*
X150660714Y-57346247D02*
X150755952Y-57298628D01*
X150755952Y-57298628D02*
X150946428Y-57251009D01*
X150946428Y-57251009D02*
X151041666Y-57203390D01*
X151041666Y-57203390D02*
X151089285Y-57155771D01*
X151089285Y-57155771D02*
X151136904Y-57060533D01*
X151136904Y-57060533D02*
X151136904Y-56965295D01*
X151136904Y-56965295D02*
X151089285Y-56870057D01*
X151089285Y-56870057D02*
X151041666Y-56822438D01*
X151041666Y-56822438D02*
X150946428Y-56774819D01*
X150946428Y-56774819D02*
X150708333Y-56774819D01*
X150708333Y-56774819D02*
X150565476Y-56822438D01*
X149755952Y-57727200D02*
X149851190Y-57774819D01*
X149851190Y-57774819D02*
X150041666Y-57774819D01*
X150041666Y-57774819D02*
X150136904Y-57727200D01*
X150136904Y-57727200D02*
X150184523Y-57631961D01*
X150184523Y-57631961D02*
X150184523Y-57251009D01*
X150184523Y-57251009D02*
X150136904Y-57155771D01*
X150136904Y-57155771D02*
X150041666Y-57108152D01*
X150041666Y-57108152D02*
X149851190Y-57108152D01*
X149851190Y-57108152D02*
X149755952Y-57155771D01*
X149755952Y-57155771D02*
X149708333Y-57251009D01*
X149708333Y-57251009D02*
X149708333Y-57346247D01*
X149708333Y-57346247D02*
X150184523Y-57441485D01*
X148898809Y-57727200D02*
X148994047Y-57774819D01*
X148994047Y-57774819D02*
X149184523Y-57774819D01*
X149184523Y-57774819D02*
X149279761Y-57727200D01*
X149279761Y-57727200D02*
X149327380Y-57631961D01*
X149327380Y-57631961D02*
X149327380Y-57251009D01*
X149327380Y-57251009D02*
X149279761Y-57155771D01*
X149279761Y-57155771D02*
X149184523Y-57108152D01*
X149184523Y-57108152D02*
X148994047Y-57108152D01*
X148994047Y-57108152D02*
X148898809Y-57155771D01*
X148898809Y-57155771D02*
X148851190Y-57251009D01*
X148851190Y-57251009D02*
X148851190Y-57346247D01*
X148851190Y-57346247D02*
X149327380Y-57441485D01*
X148041666Y-57727200D02*
X148136904Y-57774819D01*
X148136904Y-57774819D02*
X148327380Y-57774819D01*
X148327380Y-57774819D02*
X148422618Y-57727200D01*
X148422618Y-57727200D02*
X148470237Y-57631961D01*
X148470237Y-57631961D02*
X148470237Y-57251009D01*
X148470237Y-57251009D02*
X148422618Y-57155771D01*
X148422618Y-57155771D02*
X148327380Y-57108152D01*
X148327380Y-57108152D02*
X148136904Y-57108152D01*
X148136904Y-57108152D02*
X148041666Y-57155771D01*
X148041666Y-57155771D02*
X147994047Y-57251009D01*
X147994047Y-57251009D02*
X147994047Y-57346247D01*
X147994047Y-57346247D02*
X148470237Y-57441485D01*
X147136904Y-57774819D02*
X147136904Y-56774819D01*
X147136904Y-57727200D02*
X147232142Y-57774819D01*
X147232142Y-57774819D02*
X147422618Y-57774819D01*
X147422618Y-57774819D02*
X147517856Y-57727200D01*
X147517856Y-57727200D02*
X147565475Y-57679580D01*
X147565475Y-57679580D02*
X147613094Y-57584342D01*
X147613094Y-57584342D02*
X147613094Y-57298628D01*
X147613094Y-57298628D02*
X147565475Y-57203390D01*
X147565475Y-57203390D02*
X147517856Y-57155771D01*
X147517856Y-57155771D02*
X147422618Y-57108152D01*
X147422618Y-57108152D02*
X147232142Y-57108152D01*
X147232142Y-57108152D02*
X147136904Y-57155771D01*
X145946427Y-57727200D02*
X145803570Y-57774819D01*
X145803570Y-57774819D02*
X145565475Y-57774819D01*
X145565475Y-57774819D02*
X145470237Y-57727200D01*
X145470237Y-57727200D02*
X145422618Y-57679580D01*
X145422618Y-57679580D02*
X145374999Y-57584342D01*
X145374999Y-57584342D02*
X145374999Y-57489104D01*
X145374999Y-57489104D02*
X145422618Y-57393866D01*
X145422618Y-57393866D02*
X145470237Y-57346247D01*
X145470237Y-57346247D02*
X145565475Y-57298628D01*
X145565475Y-57298628D02*
X145755951Y-57251009D01*
X145755951Y-57251009D02*
X145851189Y-57203390D01*
X145851189Y-57203390D02*
X145898808Y-57155771D01*
X145898808Y-57155771D02*
X145946427Y-57060533D01*
X145946427Y-57060533D02*
X145946427Y-56965295D01*
X145946427Y-56965295D02*
X145898808Y-56870057D01*
X145898808Y-56870057D02*
X145851189Y-56822438D01*
X145851189Y-56822438D02*
X145755951Y-56774819D01*
X145755951Y-56774819D02*
X145517856Y-56774819D01*
X145517856Y-56774819D02*
X145374999Y-56822438D01*
X145089284Y-57108152D02*
X144708332Y-57108152D01*
X144946427Y-56774819D02*
X144946427Y-57631961D01*
X144946427Y-57631961D02*
X144898808Y-57727200D01*
X144898808Y-57727200D02*
X144803570Y-57774819D01*
X144803570Y-57774819D02*
X144708332Y-57774819D01*
X143946427Y-57108152D02*
X143946427Y-57774819D01*
X144374998Y-57108152D02*
X144374998Y-57631961D01*
X144374998Y-57631961D02*
X144327379Y-57727200D01*
X144327379Y-57727200D02*
X144232141Y-57774819D01*
X144232141Y-57774819D02*
X144089284Y-57774819D01*
X144089284Y-57774819D02*
X143994046Y-57727200D01*
X143994046Y-57727200D02*
X143946427Y-57679580D01*
X143041665Y-57774819D02*
X143041665Y-56774819D01*
X143041665Y-57727200D02*
X143136903Y-57774819D01*
X143136903Y-57774819D02*
X143327379Y-57774819D01*
X143327379Y-57774819D02*
X143422617Y-57727200D01*
X143422617Y-57727200D02*
X143470236Y-57679580D01*
X143470236Y-57679580D02*
X143517855Y-57584342D01*
X143517855Y-57584342D02*
X143517855Y-57298628D01*
X143517855Y-57298628D02*
X143470236Y-57203390D01*
X143470236Y-57203390D02*
X143422617Y-57155771D01*
X143422617Y-57155771D02*
X143327379Y-57108152D01*
X143327379Y-57108152D02*
X143136903Y-57108152D01*
X143136903Y-57108152D02*
X143041665Y-57155771D01*
X142565474Y-57774819D02*
X142565474Y-57108152D01*
X142565474Y-56774819D02*
X142613093Y-56822438D01*
X142613093Y-56822438D02*
X142565474Y-56870057D01*
X142565474Y-56870057D02*
X142517855Y-56822438D01*
X142517855Y-56822438D02*
X142565474Y-56774819D01*
X142565474Y-56774819D02*
X142565474Y-56870057D01*
X141946427Y-57774819D02*
X142041665Y-57727200D01*
X142041665Y-57727200D02*
X142089284Y-57679580D01*
X142089284Y-57679580D02*
X142136903Y-57584342D01*
X142136903Y-57584342D02*
X142136903Y-57298628D01*
X142136903Y-57298628D02*
X142089284Y-57203390D01*
X142089284Y-57203390D02*
X142041665Y-57155771D01*
X142041665Y-57155771D02*
X141946427Y-57108152D01*
X141946427Y-57108152D02*
X141803570Y-57108152D01*
X141803570Y-57108152D02*
X141708332Y-57155771D01*
X141708332Y-57155771D02*
X141660713Y-57203390D01*
X141660713Y-57203390D02*
X141613094Y-57298628D01*
X141613094Y-57298628D02*
X141613094Y-57584342D01*
X141613094Y-57584342D02*
X141660713Y-57679580D01*
X141660713Y-57679580D02*
X141708332Y-57727200D01*
X141708332Y-57727200D02*
X141803570Y-57774819D01*
X141803570Y-57774819D02*
X141946427Y-57774819D01*
D12*
%TO.C,D12*%
X159200001Y-88397158D02*
X158300001Y-89297158D01*
X159200001Y-89297158D01*
X159200001Y-88397158D01*
G36*
X159200001Y-89297158D02*
G01*
X158300001Y-89297158D01*
X159200001Y-88397158D01*
X159200001Y-89297158D01*
G37*
%TO.C,D18*%
X159700001Y-126397158D02*
X158800001Y-127297158D01*
X159700001Y-127297158D01*
X159700001Y-126397158D01*
G36*
X159700001Y-127297158D02*
G01*
X158800001Y-127297158D01*
X159700001Y-126397158D01*
X159700001Y-127297158D01*
G37*
%TO.C,D1*%
X121200001Y-88397158D02*
X120300001Y-89297158D01*
X121200001Y-89297158D01*
X121200001Y-88397158D01*
G36*
X121200001Y-89297158D02*
G01*
X120300001Y-89297158D01*
X121200001Y-88397158D01*
X121200001Y-89297158D01*
G37*
%TO.C,D16*%
X121200001Y-126397158D02*
X120300001Y-127297158D01*
X121200001Y-127297158D01*
X121200001Y-126397158D01*
G36*
X121200001Y-127297158D02*
G01*
X120300001Y-127297158D01*
X121200001Y-126397158D01*
X121200001Y-127297158D01*
G37*
%TO.C,D15*%
X159450001Y-107397158D02*
X158550001Y-108297158D01*
X159450001Y-108297158D01*
X159450001Y-107397158D01*
G36*
X159450001Y-108297158D02*
G01*
X158550001Y-108297158D01*
X159450001Y-107397158D01*
X159450001Y-108297158D01*
G37*
%TO.C,D17*%
X140200001Y-126397158D02*
X139300001Y-127297158D01*
X140200001Y-127297158D01*
X140200001Y-126397158D01*
G36*
X140200001Y-127297158D02*
G01*
X139300001Y-127297158D01*
X140200001Y-126397158D01*
X140200001Y-127297158D01*
G37*
%TO.C,D14*%
X140200001Y-107397158D02*
X139300001Y-108297158D01*
X140200001Y-108297158D01*
X140200001Y-107397158D01*
G36*
X140200001Y-108297158D02*
G01*
X139300001Y-108297158D01*
X140200001Y-107397158D01*
X140200001Y-108297158D01*
G37*
%TO.C,D13*%
X121200001Y-107397158D02*
X120300001Y-108297158D01*
X121200001Y-108297158D01*
X121200001Y-107397158D01*
G36*
X121200001Y-108297158D02*
G01*
X120300001Y-108297158D01*
X121200001Y-107397158D01*
X121200001Y-108297158D01*
G37*
%TO.C,D11*%
X140475001Y-88647158D02*
X139575001Y-89547158D01*
X140475001Y-89547158D01*
X140475001Y-88647158D01*
G36*
X140475001Y-89547158D02*
G01*
X139575001Y-89547158D01*
X140475001Y-88647158D01*
X140475001Y-89547158D01*
G37*
%TO.C,U1*%
D13*
X136850000Y-62250000D02*
X136850000Y-45250000D01*
X138850000Y-43250910D02*
X152650000Y-43250910D01*
X141250000Y-41825970D02*
X141250000Y-49179270D01*
X141250000Y-49179270D02*
X150250000Y-49179270D01*
X150250000Y-41825970D02*
X141250000Y-41825970D01*
X150250000Y-49179270D02*
X150250000Y-41825970D01*
X152650000Y-64250000D02*
X138850000Y-64250000D01*
X154650000Y-45250000D02*
X154650000Y-62250000D01*
D14*
X136850000Y-45250000D02*
G75*
G02*
X138850000Y-43250000I2044610J-44610D01*
G01*
X138850000Y-64250000D02*
G75*
G02*
X136850000Y-62250000I0J2000000D01*
G01*
X152650000Y-43250000D02*
G75*
G02*
X154650000Y-45250000I-44612J-2044612D01*
G01*
X154650000Y-62250000D02*
G75*
G02*
X152650000Y-64250000I-2044857J44857D01*
G01*
D15*
X156877000Y-44950000D02*
G75*
G02*
X156623000Y-44950000I-127000J0D01*
G01*
X156623000Y-44950000D02*
G75*
G02*
X156877000Y-44950000I127000J0D01*
G01*
D16*
X154637715Y-45188295D02*
X154634667Y-45139527D01*
X154630603Y-45090506D01*
X154637715Y-45188295D01*
X136860508Y-62271574D02*
X136862287Y-62320850D01*
X136865335Y-62369618D01*
X136869399Y-62418639D01*
X136874732Y-62467407D01*
X136881336Y-62516175D01*
X136888956Y-62564690D01*
X136897847Y-62612950D01*
X136907752Y-62660955D01*
X136860508Y-62271574D01*
%TD*%
%LPC*%
D17*
%TO.C,D3*%
X107750000Y-99440000D03*
D18*
X107750000Y-107060000D03*
%TD*%
D19*
%TO.C,SW4*%
X130980000Y-83040000D03*
D20*
X136060000Y-83040000D03*
D19*
X141140000Y-83040000D03*
D21*
X138600000Y-77960000D03*
X132250000Y-80500000D03*
%TD*%
D19*
%TO.C,SW7*%
X149980000Y-83040000D03*
D20*
X155060000Y-83040000D03*
D19*
X160140000Y-83040000D03*
D21*
X157600000Y-77960000D03*
X151250000Y-80500000D03*
%TD*%
D22*
%TO.C,D8*%
X164750000Y-86560000D03*
D18*
X164750000Y-78940000D03*
%TD*%
D23*
%TO.C,SW10*%
X107750000Y-59500000D03*
D24*
X107750000Y-64500000D03*
X107750000Y-62000000D03*
D25*
X115250000Y-56400000D03*
X115250000Y-67600000D03*
D24*
X122250000Y-64500000D03*
X122250000Y-59500000D03*
%TD*%
D26*
%TO.C,D12*%
X152400001Y-86647158D03*
X152400001Y-88147158D03*
X157600001Y-88147158D03*
X157600001Y-86647158D03*
%TD*%
D21*
%TO.C,REF\u002A\u002A*%
X100500000Y-133250000D03*
%TD*%
D26*
%TO.C,D18*%
X152900001Y-124647158D03*
X152900001Y-126147158D03*
X158100001Y-126147158D03*
X158100001Y-124647158D03*
%TD*%
%TO.C,D1*%
X114400001Y-86647158D03*
X114400001Y-88147158D03*
X119600001Y-88147158D03*
X119600001Y-86647158D03*
%TD*%
D19*
%TO.C,SW6*%
X130880000Y-121080000D03*
D20*
X135960000Y-121080000D03*
D19*
X141040000Y-121080000D03*
D21*
X138500000Y-116000000D03*
X132150000Y-118540000D03*
%TD*%
D19*
%TO.C,SW3*%
X111980000Y-121080000D03*
D20*
X117060000Y-121080000D03*
D19*
X122140000Y-121080000D03*
D21*
X119600000Y-116000000D03*
X113250000Y-118540000D03*
%TD*%
D26*
%TO.C,D16*%
X114400001Y-124647158D03*
X114400001Y-126147158D03*
X119600001Y-126147158D03*
X119600001Y-124647158D03*
%TD*%
D22*
%TO.C,D6*%
X145750000Y-106310000D03*
D18*
X145750000Y-98690000D03*
%TD*%
D19*
%TO.C,SW8*%
X149980000Y-102080000D03*
D20*
X155060000Y-102080000D03*
D19*
X160140000Y-102080000D03*
D21*
X157600000Y-97000000D03*
X151250000Y-99540000D03*
%TD*%
%TO.C,REF\u002A\u002A*%
X172800000Y-46910000D03*
%TD*%
D19*
%TO.C,SW2*%
X111980000Y-102080000D03*
D20*
X117060000Y-102080000D03*
D19*
X122140000Y-102080000D03*
D21*
X119600000Y-97000000D03*
X113250000Y-99540000D03*
%TD*%
D26*
%TO.C,D15*%
X152650001Y-105647158D03*
X152650001Y-107147158D03*
X157850001Y-107147158D03*
X157850001Y-105647158D03*
%TD*%
D22*
%TO.C,D2*%
X107500000Y-87060000D03*
D18*
X107500000Y-79440000D03*
%TD*%
D26*
%TO.C,D17*%
X133400001Y-124647158D03*
X133400001Y-126147158D03*
X138600001Y-126147158D03*
X138600001Y-124647158D03*
%TD*%
D21*
%TO.C,REF\u002A\u002A*%
X100250000Y-46910000D03*
%TD*%
D26*
%TO.C,D14*%
X133400001Y-105647158D03*
X133400001Y-107147158D03*
X138600001Y-107147158D03*
X138600001Y-105647158D03*
%TD*%
%TO.C,D13*%
X114400001Y-105647158D03*
X114400001Y-107147158D03*
X119600001Y-107147158D03*
X119600001Y-105647158D03*
%TD*%
D19*
%TO.C,SW1*%
X111980000Y-83040000D03*
D20*
X117060000Y-83040000D03*
D19*
X122140000Y-83040000D03*
D21*
X119600000Y-77960000D03*
X113250000Y-80500000D03*
%TD*%
D19*
%TO.C,SW9*%
X149980000Y-121040000D03*
D20*
X155060000Y-121040000D03*
D19*
X160140000Y-121040000D03*
D21*
X157600000Y-115960000D03*
X151250000Y-118500000D03*
%TD*%
%TO.C,REF\u002A\u002A*%
X172500000Y-133250000D03*
%TD*%
D17*
%TO.C,D4*%
X108750000Y-117940000D03*
D18*
X108750000Y-125560000D03*
%TD*%
D26*
%TO.C,D11*%
X133675001Y-86897158D03*
X133675001Y-88397158D03*
X138875001Y-88397158D03*
X138875001Y-86897158D03*
%TD*%
D22*
%TO.C,D9*%
X164500000Y-105810000D03*
D18*
X164500000Y-98190000D03*
%TD*%
D17*
%TO.C,D10*%
X164750000Y-117940000D03*
D18*
X164750000Y-125560000D03*
%TD*%
D27*
%TO.C,D7*%
X132940000Y-130500000D03*
D18*
X140560000Y-130500000D03*
%TD*%
D28*
%TO.C,D5*%
X140810000Y-73250000D03*
D18*
X133190000Y-73250000D03*
%TD*%
D19*
%TO.C,SW5*%
X130980000Y-102040000D03*
D20*
X136060000Y-102040000D03*
D19*
X141140000Y-102040000D03*
D21*
X138600000Y-96960000D03*
X132250000Y-99500000D03*
%TD*%
D29*
%TO.C,U1*%
X154375000Y-46130000D03*
D30*
X154375000Y-48670000D03*
X154375000Y-51210000D03*
X154375000Y-53750000D03*
X154375000Y-56290000D03*
X154375000Y-58830000D03*
X154375000Y-61370000D03*
X137125000Y-61370000D03*
X137125000Y-58830000D03*
X137125000Y-56290000D03*
D31*
X137125000Y-53750000D03*
X137125000Y-51210000D03*
X137125000Y-48670000D03*
X137125000Y-46130000D03*
%TD*%
D19*
%TO.C,U2*%
X129250000Y-57440000D03*
X129250000Y-59980000D03*
X129250000Y-62520000D03*
D32*
X129250000Y-65060000D03*
%TD*%
%LPD*%
M02*
