%TF.GenerationSoftware,KiCad,Pcbnew,10.0.3*%
%TF.CreationDate,2026-08-13T10:14:47-04:00*%
%TF.ProjectId,Macropad,4d616372-6f70-4616-942e-6b696361645f,rev?*%
%TF.SameCoordinates,Original*%
%TF.FileFunction,Drillmap*%
%TF.FilePolarity,Positive*%
%FSLAX45Y45*%
G04 Gerber Fmt 4.5, Leading zero omitted, Abs format (unit mm)*
G04 Created by KiCad (PCBNEW 10.0.3) date 2026-08-13 10:14:47*
%MOMM*%
%LPD*%
G01*
G04 APERTURE LIST*
%ADD10C,0.050000*%
%ADD11C,0.100000*%
%ADD12C,0.200000*%
%ADD13C,0.170000*%
%ADD14C,0.220000*%
%ADD15C,0.400000*%
G04 APERTURE END LIST*
D10*
X9650000Y-4550000D02*
X9650000Y-13450000D01*
X9650000Y-4550000D02*
G75*
G02*
X9900000Y-4300000I250000J0D01*
G01*
X9900000Y-4300000D02*
X17250000Y-4300000D01*
X9900000Y-13700000D02*
G75*
G02*
X9650000Y-13450000I0J250000D01*
G01*
X9900000Y-13700000D02*
X17400000Y-13700000D01*
X17250000Y-4300000D02*
X17350000Y-4300000D01*
X17350000Y-4300000D02*
G75*
G02*
X17650000Y-4600000I0J-300000D01*
G01*
X17650000Y-5650000D02*
X17650000Y-4600000D01*
X17650000Y-13450000D02*
G75*
G02*
X17400000Y-13700000I-250000J0D01*
G01*
X17650000Y-13450000D02*
X17650000Y-5650000D01*
D11*
X15330000Y-8810000D02*
X15330000Y-8669432D01*
X15420555Y-8589716D02*
X15579445Y-8589716D01*
X15579445Y-8889716D02*
X15420555Y-8889716D01*
X15670000Y-8669432D02*
X15670000Y-8810000D01*
X15325052Y-8647744D02*
G75*
G02*
X15330000Y-8669432I-45051J-21688D01*
G01*
X15325052Y-8647744D02*
G75*
G02*
X15395329Y-8582886I45052J21688D01*
G01*
X15330000Y-8810000D02*
G75*
G02*
X15325052Y-8831688I-49999J0D01*
G01*
X15395329Y-8896546D02*
G75*
G02*
X15325052Y-8831688I-25226J43170D01*
G01*
X15395329Y-8896546D02*
G75*
G02*
X15420555Y-8889716I25226J-43171D01*
G01*
X15420555Y-8589716D02*
G75*
G02*
X15395329Y-8582886I0J50001D01*
G01*
X15579445Y-8889716D02*
G75*
G02*
X15604671Y-8896546I0J-50001D01*
G01*
X15604671Y-8582886D02*
G75*
G02*
X15579445Y-8589716I-25226J43171D01*
G01*
X15604671Y-8582886D02*
G75*
G02*
X15674948Y-8647744I25226J-43170D01*
G01*
X15670000Y-8669432D02*
G75*
G02*
X15674948Y-8647744I50000J2D01*
G01*
X15674948Y-8831688D02*
G75*
G02*
X15604671Y-8896546I-45051J-21688D01*
G01*
X15674948Y-8831688D02*
G75*
G02*
X15670000Y-8810000I45052J21688D01*
G01*
X15380000Y-12610000D02*
X15380000Y-12469432D01*
X15470555Y-12389716D02*
X15629445Y-12389716D01*
X15629445Y-12689716D02*
X15470555Y-12689716D01*
X15720000Y-12469432D02*
X15720000Y-12610000D01*
X15375052Y-12447744D02*
G75*
G02*
X15380000Y-12469432I-45051J-21688D01*
G01*
X15375052Y-12447744D02*
G75*
G02*
X15445329Y-12382886I45052J21688D01*
G01*
X15380000Y-12610000D02*
G75*
G02*
X15375052Y-12631688I-49999J0D01*
G01*
X15445329Y-12696545D02*
G75*
G02*
X15375052Y-12631688I-25226J43170D01*
G01*
X15445329Y-12696546D02*
G75*
G02*
X15470555Y-12689716I25226J-43171D01*
G01*
X15470555Y-12389716D02*
G75*
G02*
X15445329Y-12382886I0J50001D01*
G01*
X15629445Y-12689716D02*
G75*
G02*
X15654671Y-12696546I0J-50001D01*
G01*
X15654671Y-12382886D02*
G75*
G02*
X15629445Y-12389716I-25226J43171D01*
G01*
X15654671Y-12382886D02*
G75*
G02*
X15724948Y-12447744I25226J-43170D01*
G01*
X15720000Y-12469431D02*
G75*
G02*
X15724948Y-12447743I50000J2D01*
G01*
X15724948Y-12631688D02*
G75*
G02*
X15654671Y-12696546I-45051J-21688D01*
G01*
X15724948Y-12631688D02*
G75*
G02*
X15720000Y-12610000I45052J21688D01*
G01*
X11530000Y-8810000D02*
X11530000Y-8669432D01*
X11620555Y-8589716D02*
X11779445Y-8589716D01*
X11779445Y-8889716D02*
X11620555Y-8889716D01*
X11870000Y-8669432D02*
X11870000Y-8810000D01*
X11525052Y-8647744D02*
G75*
G02*
X11530000Y-8669432I-45051J-21688D01*
G01*
X11525052Y-8647744D02*
G75*
G02*
X11595329Y-8582886I45052J21688D01*
G01*
X11530000Y-8810000D02*
G75*
G02*
X11525052Y-8831688I-49999J0D01*
G01*
X11595329Y-8896546D02*
G75*
G02*
X11525052Y-8831688I-25226J43170D01*
G01*
X11595329Y-8896546D02*
G75*
G02*
X11620555Y-8889716I25226J-43171D01*
G01*
X11620555Y-8589716D02*
G75*
G02*
X11595329Y-8582886I0J50001D01*
G01*
X11779445Y-8889716D02*
G75*
G02*
X11804671Y-8896546I0J-50001D01*
G01*
X11804671Y-8582886D02*
G75*
G02*
X11779445Y-8589716I-25226J43171D01*
G01*
X11804671Y-8582886D02*
G75*
G02*
X11874948Y-8647744I25226J-43170D01*
G01*
X11870000Y-8669432D02*
G75*
G02*
X11874948Y-8647744I50000J2D01*
G01*
X11874948Y-8831688D02*
G75*
G02*
X11804671Y-8896546I-45051J-21688D01*
G01*
X11874948Y-8831688D02*
G75*
G02*
X11870000Y-8810000I45052J21688D01*
G01*
X11530000Y-12610000D02*
X11530000Y-12469432D01*
X11620555Y-12389716D02*
X11779445Y-12389716D01*
X11779445Y-12689716D02*
X11620555Y-12689716D01*
X11870000Y-12469432D02*
X11870000Y-12610000D01*
X11525052Y-12447744D02*
G75*
G02*
X11530000Y-12469432I-45051J-21688D01*
G01*
X11525052Y-12447744D02*
G75*
G02*
X11595329Y-12382886I45052J21688D01*
G01*
X11530000Y-12610000D02*
G75*
G02*
X11525052Y-12631688I-49999J0D01*
G01*
X11595329Y-12696545D02*
G75*
G02*
X11525052Y-12631688I-25226J43170D01*
G01*
X11595329Y-12696546D02*
G75*
G02*
X11620555Y-12689716I25226J-43171D01*
G01*
X11620555Y-12389716D02*
G75*
G02*
X11595329Y-12382886I0J50001D01*
G01*
X11779445Y-12689716D02*
G75*
G02*
X11804671Y-12696546I0J-50001D01*
G01*
X11804671Y-12382886D02*
G75*
G02*
X11779445Y-12389716I-25226J43171D01*
G01*
X11804671Y-12382886D02*
G75*
G02*
X11874948Y-12447744I25226J-43170D01*
G01*
X11870000Y-12469431D02*
G75*
G02*
X11874948Y-12447743I50000J2D01*
G01*
X11874948Y-12631688D02*
G75*
G02*
X11804671Y-12696546I-45051J-21688D01*
G01*
X11874948Y-12631688D02*
G75*
G02*
X11870000Y-12610000I45052J21688D01*
G01*
X15355000Y-10710000D02*
X15355000Y-10569432D01*
X15445555Y-10489716D02*
X15604445Y-10489716D01*
X15604445Y-10789716D02*
X15445555Y-10789716D01*
X15695000Y-10569432D02*
X15695000Y-10710000D01*
X15350052Y-10547744D02*
G75*
G02*
X15355000Y-10569432I-45051J-21688D01*
G01*
X15350052Y-10547744D02*
G75*
G02*
X15420329Y-10482886I45052J21688D01*
G01*
X15355000Y-10710000D02*
G75*
G02*
X15350052Y-10731688I-49999J0D01*
G01*
X15420329Y-10796546D02*
G75*
G02*
X15350052Y-10731688I-25226J43170D01*
G01*
X15420329Y-10796546D02*
G75*
G02*
X15445555Y-10789716I25226J-43171D01*
G01*
X15445555Y-10489716D02*
G75*
G02*
X15420329Y-10482886I0J50001D01*
G01*
X15604445Y-10789716D02*
G75*
G02*
X15629671Y-10796546I0J-50001D01*
G01*
X15629671Y-10482886D02*
G75*
G02*
X15604445Y-10489716I-25226J43171D01*
G01*
X15629671Y-10482886D02*
G75*
G02*
X15699948Y-10547744I25226J-43170D01*
G01*
X15695000Y-10569432D02*
G75*
G02*
X15699948Y-10547744I50000J2D01*
G01*
X15699948Y-10731688D02*
G75*
G02*
X15629671Y-10796546I-45051J-21688D01*
G01*
X15699948Y-10731688D02*
G75*
G02*
X15695000Y-10710000I45052J21688D01*
G01*
X13430000Y-12610000D02*
X13430000Y-12469432D01*
X13520555Y-12389716D02*
X13679445Y-12389716D01*
X13679445Y-12689716D02*
X13520555Y-12689716D01*
X13770000Y-12469432D02*
X13770000Y-12610000D01*
X13425052Y-12447744D02*
G75*
G02*
X13430000Y-12469432I-45051J-21688D01*
G01*
X13425052Y-12447744D02*
G75*
G02*
X13495329Y-12382886I45052J21688D01*
G01*
X13430000Y-12610000D02*
G75*
G02*
X13425052Y-12631688I-49999J0D01*
G01*
X13495329Y-12696545D02*
G75*
G02*
X13425052Y-12631688I-25226J43170D01*
G01*
X13495329Y-12696546D02*
G75*
G02*
X13520555Y-12689716I25226J-43171D01*
G01*
X13520555Y-12389716D02*
G75*
G02*
X13495329Y-12382886I0J50001D01*
G01*
X13679445Y-12689716D02*
G75*
G02*
X13704671Y-12696546I0J-50001D01*
G01*
X13704671Y-12382886D02*
G75*
G02*
X13679445Y-12389716I-25226J43171D01*
G01*
X13704671Y-12382886D02*
G75*
G02*
X13774948Y-12447744I25226J-43170D01*
G01*
X13770000Y-12469431D02*
G75*
G02*
X13774948Y-12447743I50000J2D01*
G01*
X13774948Y-12631688D02*
G75*
G02*
X13704671Y-12696546I-45051J-21688D01*
G01*
X13774948Y-12631688D02*
G75*
G02*
X13770000Y-12610000I45052J21688D01*
G01*
X13430000Y-10710000D02*
X13430000Y-10569432D01*
X13520555Y-10489716D02*
X13679445Y-10489716D01*
X13679445Y-10789716D02*
X13520555Y-10789716D01*
X13770000Y-10569432D02*
X13770000Y-10710000D01*
X13425052Y-10547744D02*
G75*
G02*
X13430000Y-10569432I-45051J-21688D01*
G01*
X13425052Y-10547744D02*
G75*
G02*
X13495329Y-10482886I45052J21688D01*
G01*
X13430000Y-10710000D02*
G75*
G02*
X13425052Y-10731688I-49999J0D01*
G01*
X13495329Y-10796546D02*
G75*
G02*
X13425052Y-10731688I-25226J43170D01*
G01*
X13495329Y-10796546D02*
G75*
G02*
X13520555Y-10789716I25226J-43171D01*
G01*
X13520555Y-10489716D02*
G75*
G02*
X13495329Y-10482886I0J50001D01*
G01*
X13679445Y-10789716D02*
G75*
G02*
X13704671Y-10796546I0J-50001D01*
G01*
X13704671Y-10482886D02*
G75*
G02*
X13679445Y-10489716I-25226J43171D01*
G01*
X13704671Y-10482886D02*
G75*
G02*
X13774948Y-10547744I25226J-43170D01*
G01*
X13770000Y-10569432D02*
G75*
G02*
X13774948Y-10547744I50000J2D01*
G01*
X13774948Y-10731688D02*
G75*
G02*
X13704671Y-10796546I-45051J-21688D01*
G01*
X13774948Y-10731688D02*
G75*
G02*
X13770000Y-10710000I45052J21688D01*
G01*
X11530000Y-10710000D02*
X11530000Y-10569432D01*
X11620555Y-10489716D02*
X11779445Y-10489716D01*
X11779445Y-10789716D02*
X11620555Y-10789716D01*
X11870000Y-10569432D02*
X11870000Y-10710000D01*
X11525052Y-10547744D02*
G75*
G02*
X11530000Y-10569432I-45051J-21688D01*
G01*
X11525052Y-10547744D02*
G75*
G02*
X11595329Y-10482886I45052J21688D01*
G01*
X11530000Y-10710000D02*
G75*
G02*
X11525052Y-10731688I-49999J0D01*
G01*
X11595329Y-10796546D02*
G75*
G02*
X11525052Y-10731688I-25226J43170D01*
G01*
X11595329Y-10796546D02*
G75*
G02*
X11620555Y-10789716I25226J-43171D01*
G01*
X11620555Y-10489716D02*
G75*
G02*
X11595329Y-10482886I0J50001D01*
G01*
X11779445Y-10789716D02*
G75*
G02*
X11804671Y-10796546I0J-50001D01*
G01*
X11804671Y-10482886D02*
G75*
G02*
X11779445Y-10489716I-25226J43171D01*
G01*
X11804671Y-10482886D02*
G75*
G02*
X11874948Y-10547744I25226J-43170D01*
G01*
X11870000Y-10569432D02*
G75*
G02*
X11874948Y-10547744I50000J2D01*
G01*
X11874948Y-10731688D02*
G75*
G02*
X11804671Y-10796546I-45051J-21688D01*
G01*
X11874948Y-10731688D02*
G75*
G02*
X11870000Y-10710000I45052J21688D01*
G01*
X13457500Y-8835000D02*
X13457500Y-8694432D01*
X13548055Y-8614716D02*
X13706945Y-8614716D01*
X13706945Y-8914716D02*
X13548055Y-8914716D01*
X13797500Y-8694432D02*
X13797500Y-8835000D01*
X13452552Y-8672744D02*
G75*
G02*
X13457500Y-8694432I-45051J-21688D01*
G01*
X13452552Y-8672744D02*
G75*
G02*
X13522829Y-8607886I45052J21688D01*
G01*
X13457500Y-8835000D02*
G75*
G02*
X13452552Y-8856688I-49999J0D01*
G01*
X13522829Y-8921546D02*
G75*
G02*
X13452552Y-8856688I-25226J43170D01*
G01*
X13522829Y-8921546D02*
G75*
G02*
X13548055Y-8914716I25226J-43171D01*
G01*
X13548055Y-8614716D02*
G75*
G02*
X13522829Y-8607886I0J50001D01*
G01*
X13706945Y-8914716D02*
G75*
G02*
X13732171Y-8921546I0J-50001D01*
G01*
X13732171Y-8607886D02*
G75*
G02*
X13706945Y-8614716I-25226J43171D01*
G01*
X13732171Y-8607886D02*
G75*
G02*
X13802448Y-8672744I25226J-43170D01*
G01*
X13797500Y-8694432D02*
G75*
G02*
X13802448Y-8672744I50000J2D01*
G01*
X13802448Y-8856688D02*
G75*
G02*
X13732171Y-8921546I-45051J-21688D01*
G01*
X13802448Y-8856688D02*
G75*
G02*
X13797500Y-8835000I45052J21688D01*
G01*
D12*
D13*
X11113000Y-8219000D02*
X11283000Y-8389000D01*
X11283000Y-8219000D02*
X11113000Y-8389000D01*
X11113000Y-10123000D02*
X11283000Y-10293000D01*
X11283000Y-10123000D02*
X11113000Y-10293000D01*
X11113000Y-12023000D02*
X11283000Y-12193000D01*
X11283000Y-12023000D02*
X11113000Y-12193000D01*
X12129000Y-8219000D02*
X12299000Y-8389000D01*
X12299000Y-8219000D02*
X12129000Y-8389000D01*
X12129000Y-10123000D02*
X12299000Y-10293000D01*
X12299000Y-10123000D02*
X12129000Y-10293000D01*
X12129000Y-12023000D02*
X12299000Y-12193000D01*
X12299000Y-12023000D02*
X12129000Y-12193000D01*
X13003000Y-12023000D02*
X13173000Y-12193000D01*
X13173000Y-12023000D02*
X13003000Y-12193000D01*
X13013000Y-8219000D02*
X13183000Y-8389000D01*
X13183000Y-8219000D02*
X13013000Y-8389000D01*
X13013000Y-10119000D02*
X13183000Y-10289000D01*
X13183000Y-10119000D02*
X13013000Y-10289000D01*
X14019000Y-12023000D02*
X14189000Y-12193000D01*
X14189000Y-12023000D02*
X14019000Y-12193000D01*
X14029000Y-8219000D02*
X14199000Y-8389000D01*
X14199000Y-8219000D02*
X14029000Y-8389000D01*
X14029000Y-10119000D02*
X14199000Y-10289000D01*
X14199000Y-10119000D02*
X14029000Y-10289000D01*
X14913000Y-8219000D02*
X15083000Y-8389000D01*
X15083000Y-8219000D02*
X14913000Y-8389000D01*
X14913000Y-10123000D02*
X15083000Y-10293000D01*
X15083000Y-10123000D02*
X14913000Y-10293000D01*
X14913000Y-12019000D02*
X15083000Y-12189000D01*
X15083000Y-12019000D02*
X14913000Y-12189000D01*
X15929000Y-8219000D02*
X16099000Y-8389000D01*
X16099000Y-8219000D02*
X15929000Y-8389000D01*
X15929000Y-10123000D02*
X16099000Y-10293000D01*
X16099000Y-10123000D02*
X15929000Y-10293000D01*
X15929000Y-12019000D02*
X16099000Y-12189000D01*
X16099000Y-12019000D02*
X15929000Y-12189000D01*
D14*
X10135000Y-4691000D02*
G75*
G02*
X9915000Y-4691000I-110000J0D01*
G01*
X9915000Y-4691000D02*
G75*
G02*
X10135000Y-4691000I110000J0D01*
G01*
X10160000Y-13325000D02*
G75*
G02*
X9940000Y-13325000I-110000J0D01*
G01*
X9940000Y-13325000D02*
G75*
G02*
X10160000Y-13325000I110000J0D01*
G01*
X17360000Y-13325000D02*
G75*
G02*
X17140000Y-13325000I-110000J0D01*
G01*
X17140000Y-13325000D02*
G75*
G02*
X17360000Y-13325000I110000J0D01*
G01*
X17390000Y-4691000D02*
G75*
G02*
X17170000Y-4691000I-110000J0D01*
G01*
X17170000Y-4691000D02*
G75*
G02*
X17390000Y-4691000I110000J0D01*
G01*
D15*
X11706000Y-8104000D02*
X11706000Y-8504000D01*
X11506000Y-8304000D02*
X11906000Y-8304000D01*
X11706000Y-10008000D02*
X11706000Y-10408000D01*
X11506000Y-10208000D02*
X11906000Y-10208000D01*
X11706000Y-11908000D02*
X11706000Y-12308000D01*
X11506000Y-12108000D02*
X11906000Y-12108000D01*
X13596000Y-11908000D02*
X13596000Y-12308000D01*
X13396000Y-12108000D02*
X13796000Y-12108000D01*
X13606000Y-8104000D02*
X13606000Y-8504000D01*
X13406000Y-8304000D02*
X13806000Y-8304000D01*
X13606000Y-10004000D02*
X13606000Y-10404000D01*
X13406000Y-10204000D02*
X13806000Y-10204000D01*
X15506000Y-8104000D02*
X15506000Y-8504000D01*
X15306000Y-8304000D02*
X15706000Y-8304000D01*
X15506000Y-10008000D02*
X15506000Y-10408000D01*
X15306000Y-10208000D02*
X15706000Y-10208000D01*
X15506000Y-11904000D02*
X15506000Y-12304000D01*
X15306000Y-12104000D02*
X15706000Y-12104000D01*
D12*
X9908277Y-14013984D02*
X9908277Y-13813984D01*
X9908277Y-13813984D02*
X9955896Y-13813984D01*
X9955896Y-13813984D02*
X9984467Y-13823508D01*
X9984467Y-13823508D02*
X10003515Y-13842555D01*
X10003515Y-13842555D02*
X10013039Y-13861603D01*
X10013039Y-13861603D02*
X10022563Y-13899698D01*
X10022563Y-13899698D02*
X10022563Y-13928269D01*
X10022563Y-13928269D02*
X10013039Y-13966365D01*
X10013039Y-13966365D02*
X10003515Y-13985412D01*
X10003515Y-13985412D02*
X9984467Y-14004460D01*
X9984467Y-14004460D02*
X9955896Y-14013984D01*
X9955896Y-14013984D02*
X9908277Y-14013984D01*
X10108277Y-14013984D02*
X10108277Y-13880650D01*
X10108277Y-13918746D02*
X10117801Y-13899698D01*
X10117801Y-13899698D02*
X10127324Y-13890174D01*
X10127324Y-13890174D02*
X10146372Y-13880650D01*
X10146372Y-13880650D02*
X10165420Y-13880650D01*
X10232086Y-14013984D02*
X10232086Y-13880650D01*
X10232086Y-13813984D02*
X10222563Y-13823508D01*
X10222563Y-13823508D02*
X10232086Y-13833031D01*
X10232086Y-13833031D02*
X10241610Y-13823508D01*
X10241610Y-13823508D02*
X10232086Y-13813984D01*
X10232086Y-13813984D02*
X10232086Y-13833031D01*
X10355896Y-14013984D02*
X10336848Y-14004460D01*
X10336848Y-14004460D02*
X10327324Y-13985412D01*
X10327324Y-13985412D02*
X10327324Y-13813984D01*
X10460658Y-14013984D02*
X10441610Y-14004460D01*
X10441610Y-14004460D02*
X10432086Y-13985412D01*
X10432086Y-13985412D02*
X10432086Y-13813984D01*
X10689229Y-14013984D02*
X10689229Y-13813984D01*
X10689229Y-13813984D02*
X10755896Y-13956841D01*
X10755896Y-13956841D02*
X10822563Y-13813984D01*
X10822563Y-13813984D02*
X10822563Y-14013984D01*
X11003515Y-14013984D02*
X11003515Y-13909222D01*
X11003515Y-13909222D02*
X10993991Y-13890174D01*
X10993991Y-13890174D02*
X10974944Y-13880650D01*
X10974944Y-13880650D02*
X10936848Y-13880650D01*
X10936848Y-13880650D02*
X10917801Y-13890174D01*
X11003515Y-14004460D02*
X10984467Y-14013984D01*
X10984467Y-14013984D02*
X10936848Y-14013984D01*
X10936848Y-14013984D02*
X10917801Y-14004460D01*
X10917801Y-14004460D02*
X10908277Y-13985412D01*
X10908277Y-13985412D02*
X10908277Y-13966365D01*
X10908277Y-13966365D02*
X10917801Y-13947317D01*
X10917801Y-13947317D02*
X10936848Y-13937793D01*
X10936848Y-13937793D02*
X10984467Y-13937793D01*
X10984467Y-13937793D02*
X11003515Y-13928269D01*
X11098753Y-13880650D02*
X11098753Y-14080650D01*
X11098753Y-13890174D02*
X11117801Y-13880650D01*
X11117801Y-13880650D02*
X11155896Y-13880650D01*
X11155896Y-13880650D02*
X11174944Y-13890174D01*
X11174944Y-13890174D02*
X11184467Y-13899698D01*
X11184467Y-13899698D02*
X11193991Y-13918746D01*
X11193991Y-13918746D02*
X11193991Y-13975888D01*
X11193991Y-13975888D02*
X11184467Y-13994936D01*
X11184467Y-13994936D02*
X11174944Y-14004460D01*
X11174944Y-14004460D02*
X11155896Y-14013984D01*
X11155896Y-14013984D02*
X11117801Y-14013984D01*
X11117801Y-14013984D02*
X11098753Y-14004460D01*
X11279705Y-13994936D02*
X11289229Y-14004460D01*
X11289229Y-14004460D02*
X11279705Y-14013984D01*
X11279705Y-14013984D02*
X11270182Y-14004460D01*
X11270182Y-14004460D02*
X11279705Y-13994936D01*
X11279705Y-13994936D02*
X11279705Y-14013984D01*
X11279705Y-13890174D02*
X11289229Y-13899698D01*
X11289229Y-13899698D02*
X11279705Y-13909222D01*
X11279705Y-13909222D02*
X11270182Y-13899698D01*
X11270182Y-13899698D02*
X11279705Y-13890174D01*
X11279705Y-13890174D02*
X11279705Y-13909222D01*
D13*
X9477500Y-14257500D02*
X9647500Y-14427500D01*
X9647500Y-14257500D02*
X9477500Y-14427500D01*
D12*
X10013039Y-14433984D02*
X9898753Y-14433984D01*
X9955896Y-14433984D02*
X9955896Y-14233984D01*
X9955896Y-14233984D02*
X9936848Y-14262555D01*
X9936848Y-14262555D02*
X9917801Y-14281603D01*
X9917801Y-14281603D02*
X9898753Y-14291127D01*
X10098753Y-14414936D02*
X10108277Y-14424460D01*
X10108277Y-14424460D02*
X10098753Y-14433984D01*
X10098753Y-14433984D02*
X10089229Y-14424460D01*
X10089229Y-14424460D02*
X10098753Y-14414936D01*
X10098753Y-14414936D02*
X10098753Y-14433984D01*
X10174944Y-14233984D02*
X10308277Y-14233984D01*
X10308277Y-14233984D02*
X10222563Y-14433984D01*
X10422563Y-14233984D02*
X10441610Y-14233984D01*
X10441610Y-14233984D02*
X10460658Y-14243508D01*
X10460658Y-14243508D02*
X10470182Y-14253031D01*
X10470182Y-14253031D02*
X10479705Y-14272079D01*
X10479705Y-14272079D02*
X10489229Y-14310174D01*
X10489229Y-14310174D02*
X10489229Y-14357793D01*
X10489229Y-14357793D02*
X10479705Y-14395888D01*
X10479705Y-14395888D02*
X10470182Y-14414936D01*
X10470182Y-14414936D02*
X10460658Y-14424460D01*
X10460658Y-14424460D02*
X10441610Y-14433984D01*
X10441610Y-14433984D02*
X10422563Y-14433984D01*
X10422563Y-14433984D02*
X10403515Y-14424460D01*
X10403515Y-14424460D02*
X10393991Y-14414936D01*
X10393991Y-14414936D02*
X10384467Y-14395888D01*
X10384467Y-14395888D02*
X10374944Y-14357793D01*
X10374944Y-14357793D02*
X10374944Y-14310174D01*
X10374944Y-14310174D02*
X10384467Y-14272079D01*
X10384467Y-14272079D02*
X10393991Y-14253031D01*
X10393991Y-14253031D02*
X10403515Y-14243508D01*
X10403515Y-14243508D02*
X10422563Y-14233984D01*
X10613039Y-14233984D02*
X10632086Y-14233984D01*
X10632086Y-14233984D02*
X10651134Y-14243508D01*
X10651134Y-14243508D02*
X10660658Y-14253031D01*
X10660658Y-14253031D02*
X10670182Y-14272079D01*
X10670182Y-14272079D02*
X10679705Y-14310174D01*
X10679705Y-14310174D02*
X10679705Y-14357793D01*
X10679705Y-14357793D02*
X10670182Y-14395888D01*
X10670182Y-14395888D02*
X10660658Y-14414936D01*
X10660658Y-14414936D02*
X10651134Y-14424460D01*
X10651134Y-14424460D02*
X10632086Y-14433984D01*
X10632086Y-14433984D02*
X10613039Y-14433984D01*
X10613039Y-14433984D02*
X10593991Y-14424460D01*
X10593991Y-14424460D02*
X10584467Y-14414936D01*
X10584467Y-14414936D02*
X10574944Y-14395888D01*
X10574944Y-14395888D02*
X10565420Y-14357793D01*
X10565420Y-14357793D02*
X10565420Y-14310174D01*
X10565420Y-14310174D02*
X10574944Y-14272079D01*
X10574944Y-14272079D02*
X10584467Y-14253031D01*
X10584467Y-14253031D02*
X10593991Y-14243508D01*
X10593991Y-14243508D02*
X10613039Y-14233984D01*
X10765420Y-14433984D02*
X10765420Y-14300650D01*
X10765420Y-14319698D02*
X10774944Y-14310174D01*
X10774944Y-14310174D02*
X10793991Y-14300650D01*
X10793991Y-14300650D02*
X10822563Y-14300650D01*
X10822563Y-14300650D02*
X10841610Y-14310174D01*
X10841610Y-14310174D02*
X10851134Y-14329222D01*
X10851134Y-14329222D02*
X10851134Y-14433984D01*
X10851134Y-14329222D02*
X10860658Y-14310174D01*
X10860658Y-14310174D02*
X10879705Y-14300650D01*
X10879705Y-14300650D02*
X10908277Y-14300650D01*
X10908277Y-14300650D02*
X10927325Y-14310174D01*
X10927325Y-14310174D02*
X10936848Y-14329222D01*
X10936848Y-14329222D02*
X10936848Y-14433984D01*
X11032086Y-14433984D02*
X11032086Y-14300650D01*
X11032086Y-14319698D02*
X11041610Y-14310174D01*
X11041610Y-14310174D02*
X11060658Y-14300650D01*
X11060658Y-14300650D02*
X11089229Y-14300650D01*
X11089229Y-14300650D02*
X11108277Y-14310174D01*
X11108277Y-14310174D02*
X11117801Y-14329222D01*
X11117801Y-14329222D02*
X11117801Y-14433984D01*
X11117801Y-14329222D02*
X11127325Y-14310174D01*
X11127325Y-14310174D02*
X11146372Y-14300650D01*
X11146372Y-14300650D02*
X11174944Y-14300650D01*
X11174944Y-14300650D02*
X11193991Y-14310174D01*
X11193991Y-14310174D02*
X11203515Y-14329222D01*
X11203515Y-14329222D02*
X11203515Y-14433984D01*
X11593991Y-14224460D02*
X11422563Y-14481603D01*
X11851134Y-14233984D02*
X11870182Y-14233984D01*
X11870182Y-14233984D02*
X11889229Y-14243508D01*
X11889229Y-14243508D02*
X11898753Y-14253031D01*
X11898753Y-14253031D02*
X11908277Y-14272079D01*
X11908277Y-14272079D02*
X11917801Y-14310174D01*
X11917801Y-14310174D02*
X11917801Y-14357793D01*
X11917801Y-14357793D02*
X11908277Y-14395888D01*
X11908277Y-14395888D02*
X11898753Y-14414936D01*
X11898753Y-14414936D02*
X11889229Y-14424460D01*
X11889229Y-14424460D02*
X11870182Y-14433984D01*
X11870182Y-14433984D02*
X11851134Y-14433984D01*
X11851134Y-14433984D02*
X11832086Y-14424460D01*
X11832086Y-14424460D02*
X11822563Y-14414936D01*
X11822563Y-14414936D02*
X11813039Y-14395888D01*
X11813039Y-14395888D02*
X11803515Y-14357793D01*
X11803515Y-14357793D02*
X11803515Y-14310174D01*
X11803515Y-14310174D02*
X11813039Y-14272079D01*
X11813039Y-14272079D02*
X11822563Y-14253031D01*
X11822563Y-14253031D02*
X11832086Y-14243508D01*
X11832086Y-14243508D02*
X11851134Y-14233984D01*
X12003515Y-14414936D02*
X12013039Y-14424460D01*
X12013039Y-14424460D02*
X12003515Y-14433984D01*
X12003515Y-14433984D02*
X11993991Y-14424460D01*
X11993991Y-14424460D02*
X12003515Y-14414936D01*
X12003515Y-14414936D02*
X12003515Y-14433984D01*
X12136848Y-14233984D02*
X12155896Y-14233984D01*
X12155896Y-14233984D02*
X12174944Y-14243508D01*
X12174944Y-14243508D02*
X12184467Y-14253031D01*
X12184467Y-14253031D02*
X12193991Y-14272079D01*
X12193991Y-14272079D02*
X12203515Y-14310174D01*
X12203515Y-14310174D02*
X12203515Y-14357793D01*
X12203515Y-14357793D02*
X12193991Y-14395888D01*
X12193991Y-14395888D02*
X12184467Y-14414936D01*
X12184467Y-14414936D02*
X12174944Y-14424460D01*
X12174944Y-14424460D02*
X12155896Y-14433984D01*
X12155896Y-14433984D02*
X12136848Y-14433984D01*
X12136848Y-14433984D02*
X12117801Y-14424460D01*
X12117801Y-14424460D02*
X12108277Y-14414936D01*
X12108277Y-14414936D02*
X12098753Y-14395888D01*
X12098753Y-14395888D02*
X12089229Y-14357793D01*
X12089229Y-14357793D02*
X12089229Y-14310174D01*
X12089229Y-14310174D02*
X12098753Y-14272079D01*
X12098753Y-14272079D02*
X12108277Y-14253031D01*
X12108277Y-14253031D02*
X12117801Y-14243508D01*
X12117801Y-14243508D02*
X12136848Y-14233984D01*
X12374944Y-14233984D02*
X12336848Y-14233984D01*
X12336848Y-14233984D02*
X12317801Y-14243508D01*
X12317801Y-14243508D02*
X12308277Y-14253031D01*
X12308277Y-14253031D02*
X12289229Y-14281603D01*
X12289229Y-14281603D02*
X12279706Y-14319698D01*
X12279706Y-14319698D02*
X12279706Y-14395888D01*
X12279706Y-14395888D02*
X12289229Y-14414936D01*
X12289229Y-14414936D02*
X12298753Y-14424460D01*
X12298753Y-14424460D02*
X12317801Y-14433984D01*
X12317801Y-14433984D02*
X12355896Y-14433984D01*
X12355896Y-14433984D02*
X12374944Y-14424460D01*
X12374944Y-14424460D02*
X12384467Y-14414936D01*
X12384467Y-14414936D02*
X12393991Y-14395888D01*
X12393991Y-14395888D02*
X12393991Y-14348269D01*
X12393991Y-14348269D02*
X12384467Y-14329222D01*
X12384467Y-14329222D02*
X12374944Y-14319698D01*
X12374944Y-14319698D02*
X12355896Y-14310174D01*
X12355896Y-14310174D02*
X12317801Y-14310174D01*
X12317801Y-14310174D02*
X12298753Y-14319698D01*
X12298753Y-14319698D02*
X12289229Y-14329222D01*
X12289229Y-14329222D02*
X12279706Y-14348269D01*
X12565420Y-14233984D02*
X12527325Y-14233984D01*
X12527325Y-14233984D02*
X12508277Y-14243508D01*
X12508277Y-14243508D02*
X12498753Y-14253031D01*
X12498753Y-14253031D02*
X12479706Y-14281603D01*
X12479706Y-14281603D02*
X12470182Y-14319698D01*
X12470182Y-14319698D02*
X12470182Y-14395888D01*
X12470182Y-14395888D02*
X12479706Y-14414936D01*
X12479706Y-14414936D02*
X12489229Y-14424460D01*
X12489229Y-14424460D02*
X12508277Y-14433984D01*
X12508277Y-14433984D02*
X12546372Y-14433984D01*
X12546372Y-14433984D02*
X12565420Y-14424460D01*
X12565420Y-14424460D02*
X12574944Y-14414936D01*
X12574944Y-14414936D02*
X12584467Y-14395888D01*
X12584467Y-14395888D02*
X12584467Y-14348269D01*
X12584467Y-14348269D02*
X12574944Y-14329222D01*
X12574944Y-14329222D02*
X12565420Y-14319698D01*
X12565420Y-14319698D02*
X12546372Y-14310174D01*
X12546372Y-14310174D02*
X12508277Y-14310174D01*
X12508277Y-14310174D02*
X12489229Y-14319698D01*
X12489229Y-14319698D02*
X12479706Y-14329222D01*
X12479706Y-14329222D02*
X12470182Y-14348269D01*
X12679706Y-14433984D02*
X12717801Y-14433984D01*
X12717801Y-14433984D02*
X12736848Y-14424460D01*
X12736848Y-14424460D02*
X12746372Y-14414936D01*
X12746372Y-14414936D02*
X12765420Y-14386365D01*
X12765420Y-14386365D02*
X12774944Y-14348269D01*
X12774944Y-14348269D02*
X12774944Y-14272079D01*
X12774944Y-14272079D02*
X12765420Y-14253031D01*
X12765420Y-14253031D02*
X12755896Y-14243508D01*
X12755896Y-14243508D02*
X12736848Y-14233984D01*
X12736848Y-14233984D02*
X12698753Y-14233984D01*
X12698753Y-14233984D02*
X12679706Y-14243508D01*
X12679706Y-14243508D02*
X12670182Y-14253031D01*
X12670182Y-14253031D02*
X12660658Y-14272079D01*
X12660658Y-14272079D02*
X12660658Y-14319698D01*
X12660658Y-14319698D02*
X12670182Y-14338746D01*
X12670182Y-14338746D02*
X12679706Y-14348269D01*
X12679706Y-14348269D02*
X12698753Y-14357793D01*
X12698753Y-14357793D02*
X12736848Y-14357793D01*
X12736848Y-14357793D02*
X12755896Y-14348269D01*
X12755896Y-14348269D02*
X12765420Y-14338746D01*
X12765420Y-14338746D02*
X12774944Y-14319698D01*
X12851134Y-14233984D02*
X12851134Y-14272079D01*
X12927325Y-14233984D02*
X12927325Y-14272079D01*
X13222563Y-14510174D02*
X13213039Y-14500650D01*
X13213039Y-14500650D02*
X13193991Y-14472079D01*
X13193991Y-14472079D02*
X13184468Y-14453031D01*
X13184468Y-14453031D02*
X13174944Y-14424460D01*
X13174944Y-14424460D02*
X13165420Y-14376841D01*
X13165420Y-14376841D02*
X13165420Y-14338746D01*
X13165420Y-14338746D02*
X13174944Y-14291127D01*
X13174944Y-14291127D02*
X13184468Y-14262555D01*
X13184468Y-14262555D02*
X13193991Y-14243508D01*
X13193991Y-14243508D02*
X13213039Y-14214936D01*
X13213039Y-14214936D02*
X13222563Y-14205412D01*
X13403515Y-14433984D02*
X13289229Y-14433984D01*
X13346372Y-14433984D02*
X13346372Y-14233984D01*
X13346372Y-14233984D02*
X13327325Y-14262555D01*
X13327325Y-14262555D02*
X13308277Y-14281603D01*
X13308277Y-14281603D02*
X13289229Y-14291127D01*
X13517801Y-14319698D02*
X13498753Y-14310174D01*
X13498753Y-14310174D02*
X13489229Y-14300650D01*
X13489229Y-14300650D02*
X13479706Y-14281603D01*
X13479706Y-14281603D02*
X13479706Y-14272079D01*
X13479706Y-14272079D02*
X13489229Y-14253031D01*
X13489229Y-14253031D02*
X13498753Y-14243508D01*
X13498753Y-14243508D02*
X13517801Y-14233984D01*
X13517801Y-14233984D02*
X13555896Y-14233984D01*
X13555896Y-14233984D02*
X13574944Y-14243508D01*
X13574944Y-14243508D02*
X13584468Y-14253031D01*
X13584468Y-14253031D02*
X13593991Y-14272079D01*
X13593991Y-14272079D02*
X13593991Y-14281603D01*
X13593991Y-14281603D02*
X13584468Y-14300650D01*
X13584468Y-14300650D02*
X13574944Y-14310174D01*
X13574944Y-14310174D02*
X13555896Y-14319698D01*
X13555896Y-14319698D02*
X13517801Y-14319698D01*
X13517801Y-14319698D02*
X13498753Y-14329222D01*
X13498753Y-14329222D02*
X13489229Y-14338746D01*
X13489229Y-14338746D02*
X13479706Y-14357793D01*
X13479706Y-14357793D02*
X13479706Y-14395888D01*
X13479706Y-14395888D02*
X13489229Y-14414936D01*
X13489229Y-14414936D02*
X13498753Y-14424460D01*
X13498753Y-14424460D02*
X13517801Y-14433984D01*
X13517801Y-14433984D02*
X13555896Y-14433984D01*
X13555896Y-14433984D02*
X13574944Y-14424460D01*
X13574944Y-14424460D02*
X13584468Y-14414936D01*
X13584468Y-14414936D02*
X13593991Y-14395888D01*
X13593991Y-14395888D02*
X13593991Y-14357793D01*
X13593991Y-14357793D02*
X13584468Y-14338746D01*
X13584468Y-14338746D02*
X13574944Y-14329222D01*
X13574944Y-14329222D02*
X13555896Y-14319698D01*
X13832087Y-14433984D02*
X13832087Y-14233984D01*
X13917801Y-14433984D02*
X13917801Y-14329222D01*
X13917801Y-14329222D02*
X13908277Y-14310174D01*
X13908277Y-14310174D02*
X13889230Y-14300650D01*
X13889230Y-14300650D02*
X13860658Y-14300650D01*
X13860658Y-14300650D02*
X13841610Y-14310174D01*
X13841610Y-14310174D02*
X13832087Y-14319698D01*
X14041610Y-14433984D02*
X14022563Y-14424460D01*
X14022563Y-14424460D02*
X14013039Y-14414936D01*
X14013039Y-14414936D02*
X14003515Y-14395888D01*
X14003515Y-14395888D02*
X14003515Y-14338746D01*
X14003515Y-14338746D02*
X14013039Y-14319698D01*
X14013039Y-14319698D02*
X14022563Y-14310174D01*
X14022563Y-14310174D02*
X14041610Y-14300650D01*
X14041610Y-14300650D02*
X14070182Y-14300650D01*
X14070182Y-14300650D02*
X14089230Y-14310174D01*
X14089230Y-14310174D02*
X14098753Y-14319698D01*
X14098753Y-14319698D02*
X14108277Y-14338746D01*
X14108277Y-14338746D02*
X14108277Y-14395888D01*
X14108277Y-14395888D02*
X14098753Y-14414936D01*
X14098753Y-14414936D02*
X14089230Y-14424460D01*
X14089230Y-14424460D02*
X14070182Y-14433984D01*
X14070182Y-14433984D02*
X14041610Y-14433984D01*
X14222563Y-14433984D02*
X14203515Y-14424460D01*
X14203515Y-14424460D02*
X14193991Y-14405412D01*
X14193991Y-14405412D02*
X14193991Y-14233984D01*
X14374944Y-14424460D02*
X14355896Y-14433984D01*
X14355896Y-14433984D02*
X14317801Y-14433984D01*
X14317801Y-14433984D02*
X14298753Y-14424460D01*
X14298753Y-14424460D02*
X14289230Y-14405412D01*
X14289230Y-14405412D02*
X14289230Y-14329222D01*
X14289230Y-14329222D02*
X14298753Y-14310174D01*
X14298753Y-14310174D02*
X14317801Y-14300650D01*
X14317801Y-14300650D02*
X14355896Y-14300650D01*
X14355896Y-14300650D02*
X14374944Y-14310174D01*
X14374944Y-14310174D02*
X14384468Y-14329222D01*
X14384468Y-14329222D02*
X14384468Y-14348269D01*
X14384468Y-14348269D02*
X14289230Y-14367317D01*
X14460658Y-14424460D02*
X14479706Y-14433984D01*
X14479706Y-14433984D02*
X14517801Y-14433984D01*
X14517801Y-14433984D02*
X14536849Y-14424460D01*
X14536849Y-14424460D02*
X14546372Y-14405412D01*
X14546372Y-14405412D02*
X14546372Y-14395888D01*
X14546372Y-14395888D02*
X14536849Y-14376841D01*
X14536849Y-14376841D02*
X14517801Y-14367317D01*
X14517801Y-14367317D02*
X14489230Y-14367317D01*
X14489230Y-14367317D02*
X14470182Y-14357793D01*
X14470182Y-14357793D02*
X14460658Y-14338746D01*
X14460658Y-14338746D02*
X14460658Y-14329222D01*
X14460658Y-14329222D02*
X14470182Y-14310174D01*
X14470182Y-14310174D02*
X14489230Y-14300650D01*
X14489230Y-14300650D02*
X14517801Y-14300650D01*
X14517801Y-14300650D02*
X14536849Y-14310174D01*
X14613039Y-14510174D02*
X14622563Y-14500650D01*
X14622563Y-14500650D02*
X14641611Y-14472079D01*
X14641611Y-14472079D02*
X14651134Y-14453031D01*
X14651134Y-14453031D02*
X14660658Y-14424460D01*
X14660658Y-14424460D02*
X14670182Y-14376841D01*
X14670182Y-14376841D02*
X14670182Y-14338746D01*
X14670182Y-14338746D02*
X14660658Y-14291127D01*
X14660658Y-14291127D02*
X14651134Y-14262555D01*
X14651134Y-14262555D02*
X14641611Y-14243508D01*
X14641611Y-14243508D02*
X14622563Y-14214936D01*
X14622563Y-14214936D02*
X14613039Y-14205412D01*
X14974944Y-14510174D02*
X14965420Y-14500650D01*
X14965420Y-14500650D02*
X14946372Y-14472079D01*
X14946372Y-14472079D02*
X14936849Y-14453031D01*
X14936849Y-14453031D02*
X14927325Y-14424460D01*
X14927325Y-14424460D02*
X14917801Y-14376841D01*
X14917801Y-14376841D02*
X14917801Y-14338746D01*
X14917801Y-14338746D02*
X14927325Y-14291127D01*
X14927325Y-14291127D02*
X14936849Y-14262555D01*
X14936849Y-14262555D02*
X14946372Y-14243508D01*
X14946372Y-14243508D02*
X14965420Y-14214936D01*
X14965420Y-14214936D02*
X14974944Y-14205412D01*
X15051134Y-14300650D02*
X15051134Y-14433984D01*
X15051134Y-14319698D02*
X15060658Y-14310174D01*
X15060658Y-14310174D02*
X15079706Y-14300650D01*
X15079706Y-14300650D02*
X15108277Y-14300650D01*
X15108277Y-14300650D02*
X15127325Y-14310174D01*
X15127325Y-14310174D02*
X15136849Y-14329222D01*
X15136849Y-14329222D02*
X15136849Y-14433984D01*
X15260658Y-14433984D02*
X15241611Y-14424460D01*
X15241611Y-14424460D02*
X15232087Y-14414936D01*
X15232087Y-14414936D02*
X15222563Y-14395888D01*
X15222563Y-14395888D02*
X15222563Y-14338746D01*
X15222563Y-14338746D02*
X15232087Y-14319698D01*
X15232087Y-14319698D02*
X15241611Y-14310174D01*
X15241611Y-14310174D02*
X15260658Y-14300650D01*
X15260658Y-14300650D02*
X15289230Y-14300650D01*
X15289230Y-14300650D02*
X15308277Y-14310174D01*
X15308277Y-14310174D02*
X15317801Y-14319698D01*
X15317801Y-14319698D02*
X15327325Y-14338746D01*
X15327325Y-14338746D02*
X15327325Y-14395888D01*
X15327325Y-14395888D02*
X15317801Y-14414936D01*
X15317801Y-14414936D02*
X15308277Y-14424460D01*
X15308277Y-14424460D02*
X15289230Y-14433984D01*
X15289230Y-14433984D02*
X15260658Y-14433984D01*
X15384468Y-14300650D02*
X15460658Y-14300650D01*
X15413039Y-14233984D02*
X15413039Y-14405412D01*
X15413039Y-14405412D02*
X15422563Y-14424460D01*
X15422563Y-14424460D02*
X15441611Y-14433984D01*
X15441611Y-14433984D02*
X15460658Y-14433984D01*
X15679706Y-14300650D02*
X15679706Y-14500650D01*
X15679706Y-14310174D02*
X15698753Y-14300650D01*
X15698753Y-14300650D02*
X15736849Y-14300650D01*
X15736849Y-14300650D02*
X15755896Y-14310174D01*
X15755896Y-14310174D02*
X15765420Y-14319698D01*
X15765420Y-14319698D02*
X15774944Y-14338746D01*
X15774944Y-14338746D02*
X15774944Y-14395888D01*
X15774944Y-14395888D02*
X15765420Y-14414936D01*
X15765420Y-14414936D02*
X15755896Y-14424460D01*
X15755896Y-14424460D02*
X15736849Y-14433984D01*
X15736849Y-14433984D02*
X15698753Y-14433984D01*
X15698753Y-14433984D02*
X15679706Y-14424460D01*
X15889230Y-14433984D02*
X15870182Y-14424460D01*
X15870182Y-14424460D02*
X15860658Y-14405412D01*
X15860658Y-14405412D02*
X15860658Y-14233984D01*
X16051134Y-14433984D02*
X16051134Y-14329222D01*
X16051134Y-14329222D02*
X16041611Y-14310174D01*
X16041611Y-14310174D02*
X16022563Y-14300650D01*
X16022563Y-14300650D02*
X15984468Y-14300650D01*
X15984468Y-14300650D02*
X15965420Y-14310174D01*
X16051134Y-14424460D02*
X16032087Y-14433984D01*
X16032087Y-14433984D02*
X15984468Y-14433984D01*
X15984468Y-14433984D02*
X15965420Y-14424460D01*
X15965420Y-14424460D02*
X15955896Y-14405412D01*
X15955896Y-14405412D02*
X15955896Y-14386365D01*
X15955896Y-14386365D02*
X15965420Y-14367317D01*
X15965420Y-14367317D02*
X15984468Y-14357793D01*
X15984468Y-14357793D02*
X16032087Y-14357793D01*
X16032087Y-14357793D02*
X16051134Y-14348269D01*
X16117801Y-14300650D02*
X16193992Y-14300650D01*
X16146373Y-14233984D02*
X16146373Y-14405412D01*
X16146373Y-14405412D02*
X16155896Y-14424460D01*
X16155896Y-14424460D02*
X16174944Y-14433984D01*
X16174944Y-14433984D02*
X16193992Y-14433984D01*
X16336849Y-14424460D02*
X16317801Y-14433984D01*
X16317801Y-14433984D02*
X16279706Y-14433984D01*
X16279706Y-14433984D02*
X16260658Y-14424460D01*
X16260658Y-14424460D02*
X16251134Y-14405412D01*
X16251134Y-14405412D02*
X16251134Y-14329222D01*
X16251134Y-14329222D02*
X16260658Y-14310174D01*
X16260658Y-14310174D02*
X16279706Y-14300650D01*
X16279706Y-14300650D02*
X16317801Y-14300650D01*
X16317801Y-14300650D02*
X16336849Y-14310174D01*
X16336849Y-14310174D02*
X16346373Y-14329222D01*
X16346373Y-14329222D02*
X16346373Y-14348269D01*
X16346373Y-14348269D02*
X16251134Y-14367317D01*
X16517801Y-14433984D02*
X16517801Y-14233984D01*
X16517801Y-14424460D02*
X16498754Y-14433984D01*
X16498754Y-14433984D02*
X16460658Y-14433984D01*
X16460658Y-14433984D02*
X16441611Y-14424460D01*
X16441611Y-14424460D02*
X16432087Y-14414936D01*
X16432087Y-14414936D02*
X16422563Y-14395888D01*
X16422563Y-14395888D02*
X16422563Y-14338746D01*
X16422563Y-14338746D02*
X16432087Y-14319698D01*
X16432087Y-14319698D02*
X16441611Y-14310174D01*
X16441611Y-14310174D02*
X16460658Y-14300650D01*
X16460658Y-14300650D02*
X16498754Y-14300650D01*
X16498754Y-14300650D02*
X16517801Y-14310174D01*
X16593992Y-14510174D02*
X16603515Y-14500650D01*
X16603515Y-14500650D02*
X16622563Y-14472079D01*
X16622563Y-14472079D02*
X16632087Y-14453031D01*
X16632087Y-14453031D02*
X16641611Y-14424460D01*
X16641611Y-14424460D02*
X16651134Y-14376841D01*
X16651134Y-14376841D02*
X16651134Y-14338746D01*
X16651134Y-14338746D02*
X16641611Y-14291127D01*
X16641611Y-14291127D02*
X16632087Y-14262555D01*
X16632087Y-14262555D02*
X16622563Y-14243508D01*
X16622563Y-14243508D02*
X16603515Y-14214936D01*
X16603515Y-14214936D02*
X16593992Y-14205412D01*
X9647500Y-14632500D02*
G75*
G02*
X9447500Y-14632500I-100000J0D01*
G01*
X9447500Y-14632500D02*
G75*
G02*
X9647500Y-14632500I100000J0D01*
G01*
X9898753Y-14543031D02*
X9908277Y-14533508D01*
X9908277Y-14533508D02*
X9927324Y-14523984D01*
X9927324Y-14523984D02*
X9974944Y-14523984D01*
X9974944Y-14523984D02*
X9993991Y-14533508D01*
X9993991Y-14533508D02*
X10003515Y-14543031D01*
X10003515Y-14543031D02*
X10013039Y-14562079D01*
X10013039Y-14562079D02*
X10013039Y-14581127D01*
X10013039Y-14581127D02*
X10003515Y-14609698D01*
X10003515Y-14609698D02*
X9889229Y-14723984D01*
X9889229Y-14723984D02*
X10013039Y-14723984D01*
X10098753Y-14704936D02*
X10108277Y-14714460D01*
X10108277Y-14714460D02*
X10098753Y-14723984D01*
X10098753Y-14723984D02*
X10089229Y-14714460D01*
X10089229Y-14714460D02*
X10098753Y-14704936D01*
X10098753Y-14704936D02*
X10098753Y-14723984D01*
X10184467Y-14543031D02*
X10193991Y-14533508D01*
X10193991Y-14533508D02*
X10213039Y-14523984D01*
X10213039Y-14523984D02*
X10260658Y-14523984D01*
X10260658Y-14523984D02*
X10279705Y-14533508D01*
X10279705Y-14533508D02*
X10289229Y-14543031D01*
X10289229Y-14543031D02*
X10298753Y-14562079D01*
X10298753Y-14562079D02*
X10298753Y-14581127D01*
X10298753Y-14581127D02*
X10289229Y-14609698D01*
X10289229Y-14609698D02*
X10174944Y-14723984D01*
X10174944Y-14723984D02*
X10298753Y-14723984D01*
X10422563Y-14523984D02*
X10441610Y-14523984D01*
X10441610Y-14523984D02*
X10460658Y-14533508D01*
X10460658Y-14533508D02*
X10470182Y-14543031D01*
X10470182Y-14543031D02*
X10479705Y-14562079D01*
X10479705Y-14562079D02*
X10489229Y-14600174D01*
X10489229Y-14600174D02*
X10489229Y-14647793D01*
X10489229Y-14647793D02*
X10479705Y-14685888D01*
X10479705Y-14685888D02*
X10470182Y-14704936D01*
X10470182Y-14704936D02*
X10460658Y-14714460D01*
X10460658Y-14714460D02*
X10441610Y-14723984D01*
X10441610Y-14723984D02*
X10422563Y-14723984D01*
X10422563Y-14723984D02*
X10403515Y-14714460D01*
X10403515Y-14714460D02*
X10393991Y-14704936D01*
X10393991Y-14704936D02*
X10384467Y-14685888D01*
X10384467Y-14685888D02*
X10374944Y-14647793D01*
X10374944Y-14647793D02*
X10374944Y-14600174D01*
X10374944Y-14600174D02*
X10384467Y-14562079D01*
X10384467Y-14562079D02*
X10393991Y-14543031D01*
X10393991Y-14543031D02*
X10403515Y-14533508D01*
X10403515Y-14533508D02*
X10422563Y-14523984D01*
X10613039Y-14523984D02*
X10632086Y-14523984D01*
X10632086Y-14523984D02*
X10651134Y-14533508D01*
X10651134Y-14533508D02*
X10660658Y-14543031D01*
X10660658Y-14543031D02*
X10670182Y-14562079D01*
X10670182Y-14562079D02*
X10679705Y-14600174D01*
X10679705Y-14600174D02*
X10679705Y-14647793D01*
X10679705Y-14647793D02*
X10670182Y-14685888D01*
X10670182Y-14685888D02*
X10660658Y-14704936D01*
X10660658Y-14704936D02*
X10651134Y-14714460D01*
X10651134Y-14714460D02*
X10632086Y-14723984D01*
X10632086Y-14723984D02*
X10613039Y-14723984D01*
X10613039Y-14723984D02*
X10593991Y-14714460D01*
X10593991Y-14714460D02*
X10584467Y-14704936D01*
X10584467Y-14704936D02*
X10574944Y-14685888D01*
X10574944Y-14685888D02*
X10565420Y-14647793D01*
X10565420Y-14647793D02*
X10565420Y-14600174D01*
X10565420Y-14600174D02*
X10574944Y-14562079D01*
X10574944Y-14562079D02*
X10584467Y-14543031D01*
X10584467Y-14543031D02*
X10593991Y-14533508D01*
X10593991Y-14533508D02*
X10613039Y-14523984D01*
X10765420Y-14723984D02*
X10765420Y-14590650D01*
X10765420Y-14609698D02*
X10774944Y-14600174D01*
X10774944Y-14600174D02*
X10793991Y-14590650D01*
X10793991Y-14590650D02*
X10822563Y-14590650D01*
X10822563Y-14590650D02*
X10841610Y-14600174D01*
X10841610Y-14600174D02*
X10851134Y-14619222D01*
X10851134Y-14619222D02*
X10851134Y-14723984D01*
X10851134Y-14619222D02*
X10860658Y-14600174D01*
X10860658Y-14600174D02*
X10879705Y-14590650D01*
X10879705Y-14590650D02*
X10908277Y-14590650D01*
X10908277Y-14590650D02*
X10927325Y-14600174D01*
X10927325Y-14600174D02*
X10936848Y-14619222D01*
X10936848Y-14619222D02*
X10936848Y-14723984D01*
X11032086Y-14723984D02*
X11032086Y-14590650D01*
X11032086Y-14609698D02*
X11041610Y-14600174D01*
X11041610Y-14600174D02*
X11060658Y-14590650D01*
X11060658Y-14590650D02*
X11089229Y-14590650D01*
X11089229Y-14590650D02*
X11108277Y-14600174D01*
X11108277Y-14600174D02*
X11117801Y-14619222D01*
X11117801Y-14619222D02*
X11117801Y-14723984D01*
X11117801Y-14619222D02*
X11127325Y-14600174D01*
X11127325Y-14600174D02*
X11146372Y-14590650D01*
X11146372Y-14590650D02*
X11174944Y-14590650D01*
X11174944Y-14590650D02*
X11193991Y-14600174D01*
X11193991Y-14600174D02*
X11203515Y-14619222D01*
X11203515Y-14619222D02*
X11203515Y-14723984D01*
X11593991Y-14514460D02*
X11422563Y-14771603D01*
X11851134Y-14523984D02*
X11870182Y-14523984D01*
X11870182Y-14523984D02*
X11889229Y-14533508D01*
X11889229Y-14533508D02*
X11898753Y-14543031D01*
X11898753Y-14543031D02*
X11908277Y-14562079D01*
X11908277Y-14562079D02*
X11917801Y-14600174D01*
X11917801Y-14600174D02*
X11917801Y-14647793D01*
X11917801Y-14647793D02*
X11908277Y-14685888D01*
X11908277Y-14685888D02*
X11898753Y-14704936D01*
X11898753Y-14704936D02*
X11889229Y-14714460D01*
X11889229Y-14714460D02*
X11870182Y-14723984D01*
X11870182Y-14723984D02*
X11851134Y-14723984D01*
X11851134Y-14723984D02*
X11832086Y-14714460D01*
X11832086Y-14714460D02*
X11822563Y-14704936D01*
X11822563Y-14704936D02*
X11813039Y-14685888D01*
X11813039Y-14685888D02*
X11803515Y-14647793D01*
X11803515Y-14647793D02*
X11803515Y-14600174D01*
X11803515Y-14600174D02*
X11813039Y-14562079D01*
X11813039Y-14562079D02*
X11822563Y-14543031D01*
X11822563Y-14543031D02*
X11832086Y-14533508D01*
X11832086Y-14533508D02*
X11851134Y-14523984D01*
X12003515Y-14704936D02*
X12013039Y-14714460D01*
X12013039Y-14714460D02*
X12003515Y-14723984D01*
X12003515Y-14723984D02*
X11993991Y-14714460D01*
X11993991Y-14714460D02*
X12003515Y-14704936D01*
X12003515Y-14704936D02*
X12003515Y-14723984D01*
X12136848Y-14523984D02*
X12155896Y-14523984D01*
X12155896Y-14523984D02*
X12174944Y-14533508D01*
X12174944Y-14533508D02*
X12184467Y-14543031D01*
X12184467Y-14543031D02*
X12193991Y-14562079D01*
X12193991Y-14562079D02*
X12203515Y-14600174D01*
X12203515Y-14600174D02*
X12203515Y-14647793D01*
X12203515Y-14647793D02*
X12193991Y-14685888D01*
X12193991Y-14685888D02*
X12184467Y-14704936D01*
X12184467Y-14704936D02*
X12174944Y-14714460D01*
X12174944Y-14714460D02*
X12155896Y-14723984D01*
X12155896Y-14723984D02*
X12136848Y-14723984D01*
X12136848Y-14723984D02*
X12117801Y-14714460D01*
X12117801Y-14714460D02*
X12108277Y-14704936D01*
X12108277Y-14704936D02*
X12098753Y-14685888D01*
X12098753Y-14685888D02*
X12089229Y-14647793D01*
X12089229Y-14647793D02*
X12089229Y-14600174D01*
X12089229Y-14600174D02*
X12098753Y-14562079D01*
X12098753Y-14562079D02*
X12108277Y-14543031D01*
X12108277Y-14543031D02*
X12117801Y-14533508D01*
X12117801Y-14533508D02*
X12136848Y-14523984D01*
X12317801Y-14609698D02*
X12298753Y-14600174D01*
X12298753Y-14600174D02*
X12289229Y-14590650D01*
X12289229Y-14590650D02*
X12279706Y-14571603D01*
X12279706Y-14571603D02*
X12279706Y-14562079D01*
X12279706Y-14562079D02*
X12289229Y-14543031D01*
X12289229Y-14543031D02*
X12298753Y-14533508D01*
X12298753Y-14533508D02*
X12317801Y-14523984D01*
X12317801Y-14523984D02*
X12355896Y-14523984D01*
X12355896Y-14523984D02*
X12374944Y-14533508D01*
X12374944Y-14533508D02*
X12384467Y-14543031D01*
X12384467Y-14543031D02*
X12393991Y-14562079D01*
X12393991Y-14562079D02*
X12393991Y-14571603D01*
X12393991Y-14571603D02*
X12384467Y-14590650D01*
X12384467Y-14590650D02*
X12374944Y-14600174D01*
X12374944Y-14600174D02*
X12355896Y-14609698D01*
X12355896Y-14609698D02*
X12317801Y-14609698D01*
X12317801Y-14609698D02*
X12298753Y-14619222D01*
X12298753Y-14619222D02*
X12289229Y-14628746D01*
X12289229Y-14628746D02*
X12279706Y-14647793D01*
X12279706Y-14647793D02*
X12279706Y-14685888D01*
X12279706Y-14685888D02*
X12289229Y-14704936D01*
X12289229Y-14704936D02*
X12298753Y-14714460D01*
X12298753Y-14714460D02*
X12317801Y-14723984D01*
X12317801Y-14723984D02*
X12355896Y-14723984D01*
X12355896Y-14723984D02*
X12374944Y-14714460D01*
X12374944Y-14714460D02*
X12384467Y-14704936D01*
X12384467Y-14704936D02*
X12393991Y-14685888D01*
X12393991Y-14685888D02*
X12393991Y-14647793D01*
X12393991Y-14647793D02*
X12384467Y-14628746D01*
X12384467Y-14628746D02*
X12374944Y-14619222D01*
X12374944Y-14619222D02*
X12355896Y-14609698D01*
X12565420Y-14523984D02*
X12527325Y-14523984D01*
X12527325Y-14523984D02*
X12508277Y-14533508D01*
X12508277Y-14533508D02*
X12498753Y-14543031D01*
X12498753Y-14543031D02*
X12479706Y-14571603D01*
X12479706Y-14571603D02*
X12470182Y-14609698D01*
X12470182Y-14609698D02*
X12470182Y-14685888D01*
X12470182Y-14685888D02*
X12479706Y-14704936D01*
X12479706Y-14704936D02*
X12489229Y-14714460D01*
X12489229Y-14714460D02*
X12508277Y-14723984D01*
X12508277Y-14723984D02*
X12546372Y-14723984D01*
X12546372Y-14723984D02*
X12565420Y-14714460D01*
X12565420Y-14714460D02*
X12574944Y-14704936D01*
X12574944Y-14704936D02*
X12584467Y-14685888D01*
X12584467Y-14685888D02*
X12584467Y-14638269D01*
X12584467Y-14638269D02*
X12574944Y-14619222D01*
X12574944Y-14619222D02*
X12565420Y-14609698D01*
X12565420Y-14609698D02*
X12546372Y-14600174D01*
X12546372Y-14600174D02*
X12508277Y-14600174D01*
X12508277Y-14600174D02*
X12489229Y-14609698D01*
X12489229Y-14609698D02*
X12479706Y-14619222D01*
X12479706Y-14619222D02*
X12470182Y-14638269D01*
X12755896Y-14523984D02*
X12717801Y-14523984D01*
X12717801Y-14523984D02*
X12698753Y-14533508D01*
X12698753Y-14533508D02*
X12689229Y-14543031D01*
X12689229Y-14543031D02*
X12670182Y-14571603D01*
X12670182Y-14571603D02*
X12660658Y-14609698D01*
X12660658Y-14609698D02*
X12660658Y-14685888D01*
X12660658Y-14685888D02*
X12670182Y-14704936D01*
X12670182Y-14704936D02*
X12679706Y-14714460D01*
X12679706Y-14714460D02*
X12698753Y-14723984D01*
X12698753Y-14723984D02*
X12736848Y-14723984D01*
X12736848Y-14723984D02*
X12755896Y-14714460D01*
X12755896Y-14714460D02*
X12765420Y-14704936D01*
X12765420Y-14704936D02*
X12774944Y-14685888D01*
X12774944Y-14685888D02*
X12774944Y-14638269D01*
X12774944Y-14638269D02*
X12765420Y-14619222D01*
X12765420Y-14619222D02*
X12755896Y-14609698D01*
X12755896Y-14609698D02*
X12736848Y-14600174D01*
X12736848Y-14600174D02*
X12698753Y-14600174D01*
X12698753Y-14600174D02*
X12679706Y-14609698D01*
X12679706Y-14609698D02*
X12670182Y-14619222D01*
X12670182Y-14619222D02*
X12660658Y-14638269D01*
X12851134Y-14523984D02*
X12851134Y-14562079D01*
X12927325Y-14523984D02*
X12927325Y-14562079D01*
X13222563Y-14800174D02*
X13213039Y-14790650D01*
X13213039Y-14790650D02*
X13193991Y-14762079D01*
X13193991Y-14762079D02*
X13184468Y-14743031D01*
X13184468Y-14743031D02*
X13174944Y-14714460D01*
X13174944Y-14714460D02*
X13165420Y-14666841D01*
X13165420Y-14666841D02*
X13165420Y-14628746D01*
X13165420Y-14628746D02*
X13174944Y-14581127D01*
X13174944Y-14581127D02*
X13184468Y-14552555D01*
X13184468Y-14552555D02*
X13193991Y-14533508D01*
X13193991Y-14533508D02*
X13213039Y-14504936D01*
X13213039Y-14504936D02*
X13222563Y-14495412D01*
X13384468Y-14590650D02*
X13384468Y-14723984D01*
X13336848Y-14514460D02*
X13289229Y-14657317D01*
X13289229Y-14657317D02*
X13413039Y-14657317D01*
X13641610Y-14723984D02*
X13641610Y-14523984D01*
X13727325Y-14723984D02*
X13727325Y-14619222D01*
X13727325Y-14619222D02*
X13717801Y-14600174D01*
X13717801Y-14600174D02*
X13698753Y-14590650D01*
X13698753Y-14590650D02*
X13670182Y-14590650D01*
X13670182Y-14590650D02*
X13651134Y-14600174D01*
X13651134Y-14600174D02*
X13641610Y-14609698D01*
X13851134Y-14723984D02*
X13832087Y-14714460D01*
X13832087Y-14714460D02*
X13822563Y-14704936D01*
X13822563Y-14704936D02*
X13813039Y-14685888D01*
X13813039Y-14685888D02*
X13813039Y-14628746D01*
X13813039Y-14628746D02*
X13822563Y-14609698D01*
X13822563Y-14609698D02*
X13832087Y-14600174D01*
X13832087Y-14600174D02*
X13851134Y-14590650D01*
X13851134Y-14590650D02*
X13879706Y-14590650D01*
X13879706Y-14590650D02*
X13898753Y-14600174D01*
X13898753Y-14600174D02*
X13908277Y-14609698D01*
X13908277Y-14609698D02*
X13917801Y-14628746D01*
X13917801Y-14628746D02*
X13917801Y-14685888D01*
X13917801Y-14685888D02*
X13908277Y-14704936D01*
X13908277Y-14704936D02*
X13898753Y-14714460D01*
X13898753Y-14714460D02*
X13879706Y-14723984D01*
X13879706Y-14723984D02*
X13851134Y-14723984D01*
X14032087Y-14723984D02*
X14013039Y-14714460D01*
X14013039Y-14714460D02*
X14003515Y-14695412D01*
X14003515Y-14695412D02*
X14003515Y-14523984D01*
X14184468Y-14714460D02*
X14165420Y-14723984D01*
X14165420Y-14723984D02*
X14127325Y-14723984D01*
X14127325Y-14723984D02*
X14108277Y-14714460D01*
X14108277Y-14714460D02*
X14098753Y-14695412D01*
X14098753Y-14695412D02*
X14098753Y-14619222D01*
X14098753Y-14619222D02*
X14108277Y-14600174D01*
X14108277Y-14600174D02*
X14127325Y-14590650D01*
X14127325Y-14590650D02*
X14165420Y-14590650D01*
X14165420Y-14590650D02*
X14184468Y-14600174D01*
X14184468Y-14600174D02*
X14193991Y-14619222D01*
X14193991Y-14619222D02*
X14193991Y-14638269D01*
X14193991Y-14638269D02*
X14098753Y-14657317D01*
X14270182Y-14714460D02*
X14289230Y-14723984D01*
X14289230Y-14723984D02*
X14327325Y-14723984D01*
X14327325Y-14723984D02*
X14346372Y-14714460D01*
X14346372Y-14714460D02*
X14355896Y-14695412D01*
X14355896Y-14695412D02*
X14355896Y-14685888D01*
X14355896Y-14685888D02*
X14346372Y-14666841D01*
X14346372Y-14666841D02*
X14327325Y-14657317D01*
X14327325Y-14657317D02*
X14298753Y-14657317D01*
X14298753Y-14657317D02*
X14279706Y-14647793D01*
X14279706Y-14647793D02*
X14270182Y-14628746D01*
X14270182Y-14628746D02*
X14270182Y-14619222D01*
X14270182Y-14619222D02*
X14279706Y-14600174D01*
X14279706Y-14600174D02*
X14298753Y-14590650D01*
X14298753Y-14590650D02*
X14327325Y-14590650D01*
X14327325Y-14590650D02*
X14346372Y-14600174D01*
X14422563Y-14800174D02*
X14432087Y-14790650D01*
X14432087Y-14790650D02*
X14451134Y-14762079D01*
X14451134Y-14762079D02*
X14460658Y-14743031D01*
X14460658Y-14743031D02*
X14470182Y-14714460D01*
X14470182Y-14714460D02*
X14479706Y-14666841D01*
X14479706Y-14666841D02*
X14479706Y-14628746D01*
X14479706Y-14628746D02*
X14470182Y-14581127D01*
X14470182Y-14581127D02*
X14460658Y-14552555D01*
X14460658Y-14552555D02*
X14451134Y-14533508D01*
X14451134Y-14533508D02*
X14432087Y-14504936D01*
X14432087Y-14504936D02*
X14422563Y-14495412D01*
X14784468Y-14800174D02*
X14774944Y-14790650D01*
X14774944Y-14790650D02*
X14755896Y-14762079D01*
X14755896Y-14762079D02*
X14746372Y-14743031D01*
X14746372Y-14743031D02*
X14736849Y-14714460D01*
X14736849Y-14714460D02*
X14727325Y-14666841D01*
X14727325Y-14666841D02*
X14727325Y-14628746D01*
X14727325Y-14628746D02*
X14736849Y-14581127D01*
X14736849Y-14581127D02*
X14746372Y-14552555D01*
X14746372Y-14552555D02*
X14755896Y-14533508D01*
X14755896Y-14533508D02*
X14774944Y-14504936D01*
X14774944Y-14504936D02*
X14784468Y-14495412D01*
X14860658Y-14590650D02*
X14860658Y-14723984D01*
X14860658Y-14609698D02*
X14870182Y-14600174D01*
X14870182Y-14600174D02*
X14889230Y-14590650D01*
X14889230Y-14590650D02*
X14917801Y-14590650D01*
X14917801Y-14590650D02*
X14936849Y-14600174D01*
X14936849Y-14600174D02*
X14946372Y-14619222D01*
X14946372Y-14619222D02*
X14946372Y-14723984D01*
X15070182Y-14723984D02*
X15051134Y-14714460D01*
X15051134Y-14714460D02*
X15041611Y-14704936D01*
X15041611Y-14704936D02*
X15032087Y-14685888D01*
X15032087Y-14685888D02*
X15032087Y-14628746D01*
X15032087Y-14628746D02*
X15041611Y-14609698D01*
X15041611Y-14609698D02*
X15051134Y-14600174D01*
X15051134Y-14600174D02*
X15070182Y-14590650D01*
X15070182Y-14590650D02*
X15098753Y-14590650D01*
X15098753Y-14590650D02*
X15117801Y-14600174D01*
X15117801Y-14600174D02*
X15127325Y-14609698D01*
X15127325Y-14609698D02*
X15136849Y-14628746D01*
X15136849Y-14628746D02*
X15136849Y-14685888D01*
X15136849Y-14685888D02*
X15127325Y-14704936D01*
X15127325Y-14704936D02*
X15117801Y-14714460D01*
X15117801Y-14714460D02*
X15098753Y-14723984D01*
X15098753Y-14723984D02*
X15070182Y-14723984D01*
X15193992Y-14590650D02*
X15270182Y-14590650D01*
X15222563Y-14523984D02*
X15222563Y-14695412D01*
X15222563Y-14695412D02*
X15232087Y-14714460D01*
X15232087Y-14714460D02*
X15251134Y-14723984D01*
X15251134Y-14723984D02*
X15270182Y-14723984D01*
X15489230Y-14590650D02*
X15489230Y-14790650D01*
X15489230Y-14600174D02*
X15508277Y-14590650D01*
X15508277Y-14590650D02*
X15546373Y-14590650D01*
X15546373Y-14590650D02*
X15565420Y-14600174D01*
X15565420Y-14600174D02*
X15574944Y-14609698D01*
X15574944Y-14609698D02*
X15584468Y-14628746D01*
X15584468Y-14628746D02*
X15584468Y-14685888D01*
X15584468Y-14685888D02*
X15574944Y-14704936D01*
X15574944Y-14704936D02*
X15565420Y-14714460D01*
X15565420Y-14714460D02*
X15546373Y-14723984D01*
X15546373Y-14723984D02*
X15508277Y-14723984D01*
X15508277Y-14723984D02*
X15489230Y-14714460D01*
X15698753Y-14723984D02*
X15679706Y-14714460D01*
X15679706Y-14714460D02*
X15670182Y-14695412D01*
X15670182Y-14695412D02*
X15670182Y-14523984D01*
X15860658Y-14723984D02*
X15860658Y-14619222D01*
X15860658Y-14619222D02*
X15851134Y-14600174D01*
X15851134Y-14600174D02*
X15832087Y-14590650D01*
X15832087Y-14590650D02*
X15793992Y-14590650D01*
X15793992Y-14590650D02*
X15774944Y-14600174D01*
X15860658Y-14714460D02*
X15841611Y-14723984D01*
X15841611Y-14723984D02*
X15793992Y-14723984D01*
X15793992Y-14723984D02*
X15774944Y-14714460D01*
X15774944Y-14714460D02*
X15765420Y-14695412D01*
X15765420Y-14695412D02*
X15765420Y-14676365D01*
X15765420Y-14676365D02*
X15774944Y-14657317D01*
X15774944Y-14657317D02*
X15793992Y-14647793D01*
X15793992Y-14647793D02*
X15841611Y-14647793D01*
X15841611Y-14647793D02*
X15860658Y-14638269D01*
X15927325Y-14590650D02*
X16003515Y-14590650D01*
X15955896Y-14523984D02*
X15955896Y-14695412D01*
X15955896Y-14695412D02*
X15965420Y-14714460D01*
X15965420Y-14714460D02*
X15984468Y-14723984D01*
X15984468Y-14723984D02*
X16003515Y-14723984D01*
X16146373Y-14714460D02*
X16127325Y-14723984D01*
X16127325Y-14723984D02*
X16089230Y-14723984D01*
X16089230Y-14723984D02*
X16070182Y-14714460D01*
X16070182Y-14714460D02*
X16060658Y-14695412D01*
X16060658Y-14695412D02*
X16060658Y-14619222D01*
X16060658Y-14619222D02*
X16070182Y-14600174D01*
X16070182Y-14600174D02*
X16089230Y-14590650D01*
X16089230Y-14590650D02*
X16127325Y-14590650D01*
X16127325Y-14590650D02*
X16146373Y-14600174D01*
X16146373Y-14600174D02*
X16155896Y-14619222D01*
X16155896Y-14619222D02*
X16155896Y-14638269D01*
X16155896Y-14638269D02*
X16060658Y-14657317D01*
X16327325Y-14723984D02*
X16327325Y-14523984D01*
X16327325Y-14714460D02*
X16308277Y-14723984D01*
X16308277Y-14723984D02*
X16270182Y-14723984D01*
X16270182Y-14723984D02*
X16251134Y-14714460D01*
X16251134Y-14714460D02*
X16241611Y-14704936D01*
X16241611Y-14704936D02*
X16232087Y-14685888D01*
X16232087Y-14685888D02*
X16232087Y-14628746D01*
X16232087Y-14628746D02*
X16241611Y-14609698D01*
X16241611Y-14609698D02*
X16251134Y-14600174D01*
X16251134Y-14600174D02*
X16270182Y-14590650D01*
X16270182Y-14590650D02*
X16308277Y-14590650D01*
X16308277Y-14590650D02*
X16327325Y-14600174D01*
X16403515Y-14800174D02*
X16413039Y-14790650D01*
X16413039Y-14790650D02*
X16432087Y-14762079D01*
X16432087Y-14762079D02*
X16441611Y-14743031D01*
X16441611Y-14743031D02*
X16451134Y-14714460D01*
X16451134Y-14714460D02*
X16460658Y-14666841D01*
X16460658Y-14666841D02*
X16460658Y-14628746D01*
X16460658Y-14628746D02*
X16451134Y-14581127D01*
X16451134Y-14581127D02*
X16441611Y-14552555D01*
X16441611Y-14552555D02*
X16432087Y-14533508D01*
X16432087Y-14533508D02*
X16413039Y-14504936D01*
X16413039Y-14504936D02*
X16403515Y-14495412D01*
X9547500Y-14852500D02*
X9547500Y-15052500D01*
X9447500Y-14952500D02*
X9647500Y-14952500D01*
X9993991Y-14910650D02*
X9993991Y-15043984D01*
X9946372Y-14834460D02*
X9898753Y-14977317D01*
X9898753Y-14977317D02*
X10022563Y-14977317D01*
X10098753Y-15024936D02*
X10108277Y-15034460D01*
X10108277Y-15034460D02*
X10098753Y-15043984D01*
X10098753Y-15043984D02*
X10089229Y-15034460D01*
X10089229Y-15034460D02*
X10098753Y-15024936D01*
X10098753Y-15024936D02*
X10098753Y-15043984D01*
X10232086Y-14843984D02*
X10251134Y-14843984D01*
X10251134Y-14843984D02*
X10270182Y-14853508D01*
X10270182Y-14853508D02*
X10279705Y-14863031D01*
X10279705Y-14863031D02*
X10289229Y-14882079D01*
X10289229Y-14882079D02*
X10298753Y-14920174D01*
X10298753Y-14920174D02*
X10298753Y-14967793D01*
X10298753Y-14967793D02*
X10289229Y-15005888D01*
X10289229Y-15005888D02*
X10279705Y-15024936D01*
X10279705Y-15024936D02*
X10270182Y-15034460D01*
X10270182Y-15034460D02*
X10251134Y-15043984D01*
X10251134Y-15043984D02*
X10232086Y-15043984D01*
X10232086Y-15043984D02*
X10213039Y-15034460D01*
X10213039Y-15034460D02*
X10203515Y-15024936D01*
X10203515Y-15024936D02*
X10193991Y-15005888D01*
X10193991Y-15005888D02*
X10184467Y-14967793D01*
X10184467Y-14967793D02*
X10184467Y-14920174D01*
X10184467Y-14920174D02*
X10193991Y-14882079D01*
X10193991Y-14882079D02*
X10203515Y-14863031D01*
X10203515Y-14863031D02*
X10213039Y-14853508D01*
X10213039Y-14853508D02*
X10232086Y-14843984D01*
X10422563Y-14843984D02*
X10441610Y-14843984D01*
X10441610Y-14843984D02*
X10460658Y-14853508D01*
X10460658Y-14853508D02*
X10470182Y-14863031D01*
X10470182Y-14863031D02*
X10479705Y-14882079D01*
X10479705Y-14882079D02*
X10489229Y-14920174D01*
X10489229Y-14920174D02*
X10489229Y-14967793D01*
X10489229Y-14967793D02*
X10479705Y-15005888D01*
X10479705Y-15005888D02*
X10470182Y-15024936D01*
X10470182Y-15024936D02*
X10460658Y-15034460D01*
X10460658Y-15034460D02*
X10441610Y-15043984D01*
X10441610Y-15043984D02*
X10422563Y-15043984D01*
X10422563Y-15043984D02*
X10403515Y-15034460D01*
X10403515Y-15034460D02*
X10393991Y-15024936D01*
X10393991Y-15024936D02*
X10384467Y-15005888D01*
X10384467Y-15005888D02*
X10374944Y-14967793D01*
X10374944Y-14967793D02*
X10374944Y-14920174D01*
X10374944Y-14920174D02*
X10384467Y-14882079D01*
X10384467Y-14882079D02*
X10393991Y-14863031D01*
X10393991Y-14863031D02*
X10403515Y-14853508D01*
X10403515Y-14853508D02*
X10422563Y-14843984D01*
X10613039Y-14843984D02*
X10632086Y-14843984D01*
X10632086Y-14843984D02*
X10651134Y-14853508D01*
X10651134Y-14853508D02*
X10660658Y-14863031D01*
X10660658Y-14863031D02*
X10670182Y-14882079D01*
X10670182Y-14882079D02*
X10679705Y-14920174D01*
X10679705Y-14920174D02*
X10679705Y-14967793D01*
X10679705Y-14967793D02*
X10670182Y-15005888D01*
X10670182Y-15005888D02*
X10660658Y-15024936D01*
X10660658Y-15024936D02*
X10651134Y-15034460D01*
X10651134Y-15034460D02*
X10632086Y-15043984D01*
X10632086Y-15043984D02*
X10613039Y-15043984D01*
X10613039Y-15043984D02*
X10593991Y-15034460D01*
X10593991Y-15034460D02*
X10584467Y-15024936D01*
X10584467Y-15024936D02*
X10574944Y-15005888D01*
X10574944Y-15005888D02*
X10565420Y-14967793D01*
X10565420Y-14967793D02*
X10565420Y-14920174D01*
X10565420Y-14920174D02*
X10574944Y-14882079D01*
X10574944Y-14882079D02*
X10584467Y-14863031D01*
X10584467Y-14863031D02*
X10593991Y-14853508D01*
X10593991Y-14853508D02*
X10613039Y-14843984D01*
X10765420Y-15043984D02*
X10765420Y-14910650D01*
X10765420Y-14929698D02*
X10774944Y-14920174D01*
X10774944Y-14920174D02*
X10793991Y-14910650D01*
X10793991Y-14910650D02*
X10822563Y-14910650D01*
X10822563Y-14910650D02*
X10841610Y-14920174D01*
X10841610Y-14920174D02*
X10851134Y-14939222D01*
X10851134Y-14939222D02*
X10851134Y-15043984D01*
X10851134Y-14939222D02*
X10860658Y-14920174D01*
X10860658Y-14920174D02*
X10879705Y-14910650D01*
X10879705Y-14910650D02*
X10908277Y-14910650D01*
X10908277Y-14910650D02*
X10927325Y-14920174D01*
X10927325Y-14920174D02*
X10936848Y-14939222D01*
X10936848Y-14939222D02*
X10936848Y-15043984D01*
X11032086Y-15043984D02*
X11032086Y-14910650D01*
X11032086Y-14929698D02*
X11041610Y-14920174D01*
X11041610Y-14920174D02*
X11060658Y-14910650D01*
X11060658Y-14910650D02*
X11089229Y-14910650D01*
X11089229Y-14910650D02*
X11108277Y-14920174D01*
X11108277Y-14920174D02*
X11117801Y-14939222D01*
X11117801Y-14939222D02*
X11117801Y-15043984D01*
X11117801Y-14939222D02*
X11127325Y-14920174D01*
X11127325Y-14920174D02*
X11146372Y-14910650D01*
X11146372Y-14910650D02*
X11174944Y-14910650D01*
X11174944Y-14910650D02*
X11193991Y-14920174D01*
X11193991Y-14920174D02*
X11203515Y-14939222D01*
X11203515Y-14939222D02*
X11203515Y-15043984D01*
X11593991Y-14834460D02*
X11422563Y-15091603D01*
X11851134Y-14843984D02*
X11870182Y-14843984D01*
X11870182Y-14843984D02*
X11889229Y-14853508D01*
X11889229Y-14853508D02*
X11898753Y-14863031D01*
X11898753Y-14863031D02*
X11908277Y-14882079D01*
X11908277Y-14882079D02*
X11917801Y-14920174D01*
X11917801Y-14920174D02*
X11917801Y-14967793D01*
X11917801Y-14967793D02*
X11908277Y-15005888D01*
X11908277Y-15005888D02*
X11898753Y-15024936D01*
X11898753Y-15024936D02*
X11889229Y-15034460D01*
X11889229Y-15034460D02*
X11870182Y-15043984D01*
X11870182Y-15043984D02*
X11851134Y-15043984D01*
X11851134Y-15043984D02*
X11832086Y-15034460D01*
X11832086Y-15034460D02*
X11822563Y-15024936D01*
X11822563Y-15024936D02*
X11813039Y-15005888D01*
X11813039Y-15005888D02*
X11803515Y-14967793D01*
X11803515Y-14967793D02*
X11803515Y-14920174D01*
X11803515Y-14920174D02*
X11813039Y-14882079D01*
X11813039Y-14882079D02*
X11822563Y-14863031D01*
X11822563Y-14863031D02*
X11832086Y-14853508D01*
X11832086Y-14853508D02*
X11851134Y-14843984D01*
X12003515Y-15024936D02*
X12013039Y-15034460D01*
X12013039Y-15034460D02*
X12003515Y-15043984D01*
X12003515Y-15043984D02*
X11993991Y-15034460D01*
X11993991Y-15034460D02*
X12003515Y-15024936D01*
X12003515Y-15024936D02*
X12003515Y-15043984D01*
X12203515Y-15043984D02*
X12089229Y-15043984D01*
X12146372Y-15043984D02*
X12146372Y-14843984D01*
X12146372Y-14843984D02*
X12127325Y-14872555D01*
X12127325Y-14872555D02*
X12108277Y-14891603D01*
X12108277Y-14891603D02*
X12089229Y-14901127D01*
X12384467Y-14843984D02*
X12289229Y-14843984D01*
X12289229Y-14843984D02*
X12279706Y-14939222D01*
X12279706Y-14939222D02*
X12289229Y-14929698D01*
X12289229Y-14929698D02*
X12308277Y-14920174D01*
X12308277Y-14920174D02*
X12355896Y-14920174D01*
X12355896Y-14920174D02*
X12374944Y-14929698D01*
X12374944Y-14929698D02*
X12384467Y-14939222D01*
X12384467Y-14939222D02*
X12393991Y-14958269D01*
X12393991Y-14958269D02*
X12393991Y-15005888D01*
X12393991Y-15005888D02*
X12384467Y-15024936D01*
X12384467Y-15024936D02*
X12374944Y-15034460D01*
X12374944Y-15034460D02*
X12355896Y-15043984D01*
X12355896Y-15043984D02*
X12308277Y-15043984D01*
X12308277Y-15043984D02*
X12289229Y-15034460D01*
X12289229Y-15034460D02*
X12279706Y-15024936D01*
X12460658Y-14843984D02*
X12593991Y-14843984D01*
X12593991Y-14843984D02*
X12508277Y-15043984D01*
X12765420Y-14843984D02*
X12670182Y-14843984D01*
X12670182Y-14843984D02*
X12660658Y-14939222D01*
X12660658Y-14939222D02*
X12670182Y-14929698D01*
X12670182Y-14929698D02*
X12689229Y-14920174D01*
X12689229Y-14920174D02*
X12736848Y-14920174D01*
X12736848Y-14920174D02*
X12755896Y-14929698D01*
X12755896Y-14929698D02*
X12765420Y-14939222D01*
X12765420Y-14939222D02*
X12774944Y-14958269D01*
X12774944Y-14958269D02*
X12774944Y-15005888D01*
X12774944Y-15005888D02*
X12765420Y-15024936D01*
X12765420Y-15024936D02*
X12755896Y-15034460D01*
X12755896Y-15034460D02*
X12736848Y-15043984D01*
X12736848Y-15043984D02*
X12689229Y-15043984D01*
X12689229Y-15043984D02*
X12670182Y-15034460D01*
X12670182Y-15034460D02*
X12660658Y-15024936D01*
X12851134Y-14843984D02*
X12851134Y-14882079D01*
X12927325Y-14843984D02*
X12927325Y-14882079D01*
X13222563Y-15120174D02*
X13213039Y-15110650D01*
X13213039Y-15110650D02*
X13193991Y-15082079D01*
X13193991Y-15082079D02*
X13184468Y-15063031D01*
X13184468Y-15063031D02*
X13174944Y-15034460D01*
X13174944Y-15034460D02*
X13165420Y-14986841D01*
X13165420Y-14986841D02*
X13165420Y-14948746D01*
X13165420Y-14948746D02*
X13174944Y-14901127D01*
X13174944Y-14901127D02*
X13184468Y-14872555D01*
X13184468Y-14872555D02*
X13193991Y-14853508D01*
X13193991Y-14853508D02*
X13213039Y-14824936D01*
X13213039Y-14824936D02*
X13222563Y-14815412D01*
X13308277Y-15043984D02*
X13346372Y-15043984D01*
X13346372Y-15043984D02*
X13365420Y-15034460D01*
X13365420Y-15034460D02*
X13374944Y-15024936D01*
X13374944Y-15024936D02*
X13393991Y-14996365D01*
X13393991Y-14996365D02*
X13403515Y-14958269D01*
X13403515Y-14958269D02*
X13403515Y-14882079D01*
X13403515Y-14882079D02*
X13393991Y-14863031D01*
X13393991Y-14863031D02*
X13384468Y-14853508D01*
X13384468Y-14853508D02*
X13365420Y-14843984D01*
X13365420Y-14843984D02*
X13327325Y-14843984D01*
X13327325Y-14843984D02*
X13308277Y-14853508D01*
X13308277Y-14853508D02*
X13298753Y-14863031D01*
X13298753Y-14863031D02*
X13289229Y-14882079D01*
X13289229Y-14882079D02*
X13289229Y-14929698D01*
X13289229Y-14929698D02*
X13298753Y-14948746D01*
X13298753Y-14948746D02*
X13308277Y-14958269D01*
X13308277Y-14958269D02*
X13327325Y-14967793D01*
X13327325Y-14967793D02*
X13365420Y-14967793D01*
X13365420Y-14967793D02*
X13384468Y-14958269D01*
X13384468Y-14958269D02*
X13393991Y-14948746D01*
X13393991Y-14948746D02*
X13403515Y-14929698D01*
X13641610Y-15043984D02*
X13641610Y-14843984D01*
X13727325Y-15043984D02*
X13727325Y-14939222D01*
X13727325Y-14939222D02*
X13717801Y-14920174D01*
X13717801Y-14920174D02*
X13698753Y-14910650D01*
X13698753Y-14910650D02*
X13670182Y-14910650D01*
X13670182Y-14910650D02*
X13651134Y-14920174D01*
X13651134Y-14920174D02*
X13641610Y-14929698D01*
X13851134Y-15043984D02*
X13832087Y-15034460D01*
X13832087Y-15034460D02*
X13822563Y-15024936D01*
X13822563Y-15024936D02*
X13813039Y-15005888D01*
X13813039Y-15005888D02*
X13813039Y-14948746D01*
X13813039Y-14948746D02*
X13822563Y-14929698D01*
X13822563Y-14929698D02*
X13832087Y-14920174D01*
X13832087Y-14920174D02*
X13851134Y-14910650D01*
X13851134Y-14910650D02*
X13879706Y-14910650D01*
X13879706Y-14910650D02*
X13898753Y-14920174D01*
X13898753Y-14920174D02*
X13908277Y-14929698D01*
X13908277Y-14929698D02*
X13917801Y-14948746D01*
X13917801Y-14948746D02*
X13917801Y-15005888D01*
X13917801Y-15005888D02*
X13908277Y-15024936D01*
X13908277Y-15024936D02*
X13898753Y-15034460D01*
X13898753Y-15034460D02*
X13879706Y-15043984D01*
X13879706Y-15043984D02*
X13851134Y-15043984D01*
X14032087Y-15043984D02*
X14013039Y-15034460D01*
X14013039Y-15034460D02*
X14003515Y-15015412D01*
X14003515Y-15015412D02*
X14003515Y-14843984D01*
X14184468Y-15034460D02*
X14165420Y-15043984D01*
X14165420Y-15043984D02*
X14127325Y-15043984D01*
X14127325Y-15043984D02*
X14108277Y-15034460D01*
X14108277Y-15034460D02*
X14098753Y-15015412D01*
X14098753Y-15015412D02*
X14098753Y-14939222D01*
X14098753Y-14939222D02*
X14108277Y-14920174D01*
X14108277Y-14920174D02*
X14127325Y-14910650D01*
X14127325Y-14910650D02*
X14165420Y-14910650D01*
X14165420Y-14910650D02*
X14184468Y-14920174D01*
X14184468Y-14920174D02*
X14193991Y-14939222D01*
X14193991Y-14939222D02*
X14193991Y-14958269D01*
X14193991Y-14958269D02*
X14098753Y-14977317D01*
X14270182Y-15034460D02*
X14289230Y-15043984D01*
X14289230Y-15043984D02*
X14327325Y-15043984D01*
X14327325Y-15043984D02*
X14346372Y-15034460D01*
X14346372Y-15034460D02*
X14355896Y-15015412D01*
X14355896Y-15015412D02*
X14355896Y-15005888D01*
X14355896Y-15005888D02*
X14346372Y-14986841D01*
X14346372Y-14986841D02*
X14327325Y-14977317D01*
X14327325Y-14977317D02*
X14298753Y-14977317D01*
X14298753Y-14977317D02*
X14279706Y-14967793D01*
X14279706Y-14967793D02*
X14270182Y-14948746D01*
X14270182Y-14948746D02*
X14270182Y-14939222D01*
X14270182Y-14939222D02*
X14279706Y-14920174D01*
X14279706Y-14920174D02*
X14298753Y-14910650D01*
X14298753Y-14910650D02*
X14327325Y-14910650D01*
X14327325Y-14910650D02*
X14346372Y-14920174D01*
X14422563Y-15120174D02*
X14432087Y-15110650D01*
X14432087Y-15110650D02*
X14451134Y-15082079D01*
X14451134Y-15082079D02*
X14460658Y-15063031D01*
X14460658Y-15063031D02*
X14470182Y-15034460D01*
X14470182Y-15034460D02*
X14479706Y-14986841D01*
X14479706Y-14986841D02*
X14479706Y-14948746D01*
X14479706Y-14948746D02*
X14470182Y-14901127D01*
X14470182Y-14901127D02*
X14460658Y-14872555D01*
X14460658Y-14872555D02*
X14451134Y-14853508D01*
X14451134Y-14853508D02*
X14432087Y-14824936D01*
X14432087Y-14824936D02*
X14422563Y-14815412D01*
X14784468Y-15120174D02*
X14774944Y-15110650D01*
X14774944Y-15110650D02*
X14755896Y-15082079D01*
X14755896Y-15082079D02*
X14746372Y-15063031D01*
X14746372Y-15063031D02*
X14736849Y-15034460D01*
X14736849Y-15034460D02*
X14727325Y-14986841D01*
X14727325Y-14986841D02*
X14727325Y-14948746D01*
X14727325Y-14948746D02*
X14736849Y-14901127D01*
X14736849Y-14901127D02*
X14746372Y-14872555D01*
X14746372Y-14872555D02*
X14755896Y-14853508D01*
X14755896Y-14853508D02*
X14774944Y-14824936D01*
X14774944Y-14824936D02*
X14784468Y-14815412D01*
X14860658Y-14910650D02*
X14860658Y-15043984D01*
X14860658Y-14929698D02*
X14870182Y-14920174D01*
X14870182Y-14920174D02*
X14889230Y-14910650D01*
X14889230Y-14910650D02*
X14917801Y-14910650D01*
X14917801Y-14910650D02*
X14936849Y-14920174D01*
X14936849Y-14920174D02*
X14946372Y-14939222D01*
X14946372Y-14939222D02*
X14946372Y-15043984D01*
X15070182Y-15043984D02*
X15051134Y-15034460D01*
X15051134Y-15034460D02*
X15041611Y-15024936D01*
X15041611Y-15024936D02*
X15032087Y-15005888D01*
X15032087Y-15005888D02*
X15032087Y-14948746D01*
X15032087Y-14948746D02*
X15041611Y-14929698D01*
X15041611Y-14929698D02*
X15051134Y-14920174D01*
X15051134Y-14920174D02*
X15070182Y-14910650D01*
X15070182Y-14910650D02*
X15098753Y-14910650D01*
X15098753Y-14910650D02*
X15117801Y-14920174D01*
X15117801Y-14920174D02*
X15127325Y-14929698D01*
X15127325Y-14929698D02*
X15136849Y-14948746D01*
X15136849Y-14948746D02*
X15136849Y-15005888D01*
X15136849Y-15005888D02*
X15127325Y-15024936D01*
X15127325Y-15024936D02*
X15117801Y-15034460D01*
X15117801Y-15034460D02*
X15098753Y-15043984D01*
X15098753Y-15043984D02*
X15070182Y-15043984D01*
X15193992Y-14910650D02*
X15270182Y-14910650D01*
X15222563Y-14843984D02*
X15222563Y-15015412D01*
X15222563Y-15015412D02*
X15232087Y-15034460D01*
X15232087Y-15034460D02*
X15251134Y-15043984D01*
X15251134Y-15043984D02*
X15270182Y-15043984D01*
X15489230Y-14910650D02*
X15489230Y-15110650D01*
X15489230Y-14920174D02*
X15508277Y-14910650D01*
X15508277Y-14910650D02*
X15546373Y-14910650D01*
X15546373Y-14910650D02*
X15565420Y-14920174D01*
X15565420Y-14920174D02*
X15574944Y-14929698D01*
X15574944Y-14929698D02*
X15584468Y-14948746D01*
X15584468Y-14948746D02*
X15584468Y-15005888D01*
X15584468Y-15005888D02*
X15574944Y-15024936D01*
X15574944Y-15024936D02*
X15565420Y-15034460D01*
X15565420Y-15034460D02*
X15546373Y-15043984D01*
X15546373Y-15043984D02*
X15508277Y-15043984D01*
X15508277Y-15043984D02*
X15489230Y-15034460D01*
X15698753Y-15043984D02*
X15679706Y-15034460D01*
X15679706Y-15034460D02*
X15670182Y-15015412D01*
X15670182Y-15015412D02*
X15670182Y-14843984D01*
X15860658Y-15043984D02*
X15860658Y-14939222D01*
X15860658Y-14939222D02*
X15851134Y-14920174D01*
X15851134Y-14920174D02*
X15832087Y-14910650D01*
X15832087Y-14910650D02*
X15793992Y-14910650D01*
X15793992Y-14910650D02*
X15774944Y-14920174D01*
X15860658Y-15034460D02*
X15841611Y-15043984D01*
X15841611Y-15043984D02*
X15793992Y-15043984D01*
X15793992Y-15043984D02*
X15774944Y-15034460D01*
X15774944Y-15034460D02*
X15765420Y-15015412D01*
X15765420Y-15015412D02*
X15765420Y-14996365D01*
X15765420Y-14996365D02*
X15774944Y-14977317D01*
X15774944Y-14977317D02*
X15793992Y-14967793D01*
X15793992Y-14967793D02*
X15841611Y-14967793D01*
X15841611Y-14967793D02*
X15860658Y-14958269D01*
X15927325Y-14910650D02*
X16003515Y-14910650D01*
X15955896Y-14843984D02*
X15955896Y-15015412D01*
X15955896Y-15015412D02*
X15965420Y-15034460D01*
X15965420Y-15034460D02*
X15984468Y-15043984D01*
X15984468Y-15043984D02*
X16003515Y-15043984D01*
X16146373Y-15034460D02*
X16127325Y-15043984D01*
X16127325Y-15043984D02*
X16089230Y-15043984D01*
X16089230Y-15043984D02*
X16070182Y-15034460D01*
X16070182Y-15034460D02*
X16060658Y-15015412D01*
X16060658Y-15015412D02*
X16060658Y-14939222D01*
X16060658Y-14939222D02*
X16070182Y-14920174D01*
X16070182Y-14920174D02*
X16089230Y-14910650D01*
X16089230Y-14910650D02*
X16127325Y-14910650D01*
X16127325Y-14910650D02*
X16146373Y-14920174D01*
X16146373Y-14920174D02*
X16155896Y-14939222D01*
X16155896Y-14939222D02*
X16155896Y-14958269D01*
X16155896Y-14958269D02*
X16060658Y-14977317D01*
X16327325Y-15043984D02*
X16327325Y-14843984D01*
X16327325Y-15034460D02*
X16308277Y-15043984D01*
X16308277Y-15043984D02*
X16270182Y-15043984D01*
X16270182Y-15043984D02*
X16251134Y-15034460D01*
X16251134Y-15034460D02*
X16241611Y-15024936D01*
X16241611Y-15024936D02*
X16232087Y-15005888D01*
X16232087Y-15005888D02*
X16232087Y-14948746D01*
X16232087Y-14948746D02*
X16241611Y-14929698D01*
X16241611Y-14929698D02*
X16251134Y-14920174D01*
X16251134Y-14920174D02*
X16270182Y-14910650D01*
X16270182Y-14910650D02*
X16308277Y-14910650D01*
X16308277Y-14910650D02*
X16327325Y-14920174D01*
X16403515Y-15120174D02*
X16413039Y-15110650D01*
X16413039Y-15110650D02*
X16432087Y-15082079D01*
X16432087Y-15082079D02*
X16441611Y-15063031D01*
X16441611Y-15063031D02*
X16451134Y-15034460D01*
X16451134Y-15034460D02*
X16460658Y-14986841D01*
X16460658Y-14986841D02*
X16460658Y-14948746D01*
X16460658Y-14948746D02*
X16451134Y-14901127D01*
X16451134Y-14901127D02*
X16441611Y-14872555D01*
X16441611Y-14872555D02*
X16432087Y-14853508D01*
X16432087Y-14853508D02*
X16413039Y-14824936D01*
X16413039Y-14824936D02*
X16403515Y-14815412D01*
M02*
