%TF.GenerationSoftware,KiCad,Pcbnew,10.0.3*%
%TF.CreationDate,2026-08-13T10:14:09-04:00*%
%TF.ProjectId,Macropad,4d616372-6f70-4616-942e-6b696361645f,rev?*%
%TF.SameCoordinates,Original*%
%TF.FileFunction,Copper,L2,Bot*%
%TF.FilePolarity,Positive*%
%FSLAX46Y46*%
G04 Gerber Fmt 4.6, Leading zero omitted, Abs format (unit mm)*
G04 Created by KiCad (PCBNEW 10.0.3) date 2026-08-13 10:14:09*
%MOMM*%
%LPD*%
G01*
G04 APERTURE LIST*
G04 Aperture macros list*
%AMRoundRect*
0 Rectangle with rounded corners*
0 $1 Rounding radius*
0 $2 $3 $4 $5 $6 $7 $8 $9 X,Y pos of 4 corners*
0 Add a 4 corners polygon primitive as box body*
4,1,4,$2,$3,$4,$5,$6,$7,$8,$9,$2,$3,0*
0 Add four circle primitives for the rounded corners*
1,1,$1+$1,$2,$3*
1,1,$1+$1,$4,$5*
1,1,$1+$1,$6,$7*
1,1,$1+$1,$8,$9*
0 Add four rect primitives between the rounded corners*
20,1,$1+$1,$2,$3,$4,$5,0*
20,1,$1+$1,$4,$5,$6,$7,0*
20,1,$1+$1,$6,$7,$8,$9,0*
20,1,$1+$1,$8,$9,$2,$3,0*%
G04 Aperture macros list end*
%TA.AperFunction,ComponentPad*%
%ADD10RoundRect,0.250000X-0.550000X0.550000X-0.550000X-0.550000X0.550000X-0.550000X0.550000X0.550000X0*%
%TD*%
%TA.AperFunction,ComponentPad*%
%ADD11C,1.600000*%
%TD*%
%TA.AperFunction,ComponentPad*%
%ADD12C,2.200000*%
%TD*%
%TA.AperFunction,ComponentPad*%
%ADD13RoundRect,0.250000X0.550000X-0.550000X0.550000X0.550000X-0.550000X0.550000X-0.550000X-0.550000X0*%
%TD*%
%TA.AperFunction,ComponentPad*%
%ADD14R,2.000000X2.000000*%
%TD*%
%TA.AperFunction,ComponentPad*%
%ADD15C,2.000000*%
%TD*%
%TA.AperFunction,ComponentPad*%
%ADD16R,3.200000X2.000000*%
%TD*%
%TA.AperFunction,SMDPad,CuDef*%
%ADD17RoundRect,0.082000X-0.718000X0.328000X-0.718000X-0.328000X0.718000X-0.328000X0.718000X0.328000X0*%
%TD*%
%TA.AperFunction,ComponentPad*%
%ADD18RoundRect,0.250000X-0.550000X-0.550000X0.550000X-0.550000X0.550000X0.550000X-0.550000X0.550000X0*%
%TD*%
%TA.AperFunction,ComponentPad*%
%ADD19RoundRect,0.250000X0.550000X0.550000X-0.550000X0.550000X-0.550000X-0.550000X0.550000X-0.550000X0*%
%TD*%
%TA.AperFunction,ComponentPad*%
%ADD20R,3.500000X1.700000*%
%TD*%
%TA.AperFunction,ComponentPad*%
%ADD21O,3.600000X1.700000*%
%TD*%
%TA.AperFunction,ComponentPad*%
%ADD22O,3.700000X1.700000*%
%TD*%
%TA.AperFunction,ComponentPad*%
%ADD23C,1.700000*%
%TD*%
%TA.AperFunction,ComponentPad*%
%ADD24RoundRect,0.170000X0.680000X-0.680000X0.680000X0.680000X-0.680000X0.680000X-0.680000X-0.680000X0*%
%TD*%
%TA.AperFunction,ViaPad*%
%ADD25C,0.600000*%
%TD*%
%TA.AperFunction,Conductor*%
%ADD26C,0.200000*%
%TD*%
G04 APERTURE END LIST*
D10*
%TO.P,D3,1,K_1*%
%TO.N,Row 0*%
X107750000Y-99440000D03*
D11*
%TO.P,D3,2,A_2*%
%TO.N,Net-(D3-A)*%
X107750000Y-107060000D03*
%TD*%
D12*
%TO.P,SW4,1,1_1*%
%TO.N,Col 0*%
X138600000Y-77960000D03*
%TO.P,SW4,2,2_2*%
%TO.N,Net-(D5-A)*%
X132250000Y-80500000D03*
%TD*%
%TO.P,SW7,1,1_1*%
%TO.N,Col 0*%
X157600000Y-77960000D03*
%TO.P,SW7,2,2_2*%
%TO.N,Net-(D8-A)*%
X151250000Y-80500000D03*
%TD*%
D13*
%TO.P,D8,1,K_1*%
%TO.N,Row 2*%
X164750000Y-86560000D03*
D11*
%TO.P,D8,2,A_2*%
%TO.N,Net-(D8-A)*%
X164750000Y-78940000D03*
%TD*%
D14*
%TO.P,SW10,A,A_A*%
%TO.N,RNA*%
X107750000Y-59500000D03*
D15*
%TO.P,SW10,B,B_B*%
%TO.N,RNB*%
X107750000Y-64500000D03*
%TO.P,SW10,C,C_C*%
%TO.N,GND*%
X107750000Y-62000000D03*
D16*
%TO.P,SW10,MP*%
%TO.N,N/C*%
X115250000Y-56400000D03*
X115250000Y-67600000D03*
D15*
%TO.P,SW10,S1,S1_S1*%
%TO.N,unconnected-(SW10-PadS1)*%
X122250000Y-64500000D03*
%TO.P,SW10,S2,S2_S2*%
%TO.N,unconnected-(SW10-PadS2)*%
X122250000Y-59500000D03*
%TD*%
D17*
%TO.P,D12,1,VDD_1*%
%TO.N,+5V*%
X152400001Y-86647158D03*
%TO.P,D12,2,DOUT_2*%
%TO.N,Net-(D12-DOUT)*%
X152400001Y-88147158D03*
%TO.P,D12,3,VSS_3*%
%TO.N,GND*%
X157600001Y-88147158D03*
%TO.P,D12,4,DIN_4*%
%TO.N,Net-(D11-DOUT)*%
X157600001Y-86647158D03*
%TD*%
%TO.P,D18,1,VDD_1*%
%TO.N,+5V*%
X152900001Y-124647158D03*
%TO.P,D18,2,DOUT_2*%
%TO.N,unconnected-(D18-DOUT-Pad2)*%
X152900001Y-126147158D03*
%TO.P,D18,3,VSS_3*%
%TO.N,GND*%
X158100001Y-126147158D03*
%TO.P,D18,4,DIN_4*%
%TO.N,Net-(D17-DOUT)*%
X158100001Y-124647158D03*
%TD*%
%TO.P,D1,1,VDD_1*%
%TO.N,+5V*%
X114400001Y-86647158D03*
%TO.P,D1,2,DOUT_2*%
%TO.N,Net-(D1-DOUT)*%
X114400001Y-88147158D03*
%TO.P,D1,3,VSS_3*%
%TO.N,GND*%
X119600001Y-88147158D03*
%TO.P,D1,4,DIN_4*%
%TO.N,LED*%
X119600001Y-86647158D03*
%TD*%
D12*
%TO.P,SW6,1,1_1*%
%TO.N,Col 2*%
X138500000Y-116000000D03*
%TO.P,SW6,2,2_2*%
%TO.N,Net-(D7-A)*%
X132150000Y-118540000D03*
%TD*%
%TO.P,SW3,1,1_1*%
%TO.N,Col 2*%
X119600000Y-116000000D03*
%TO.P,SW3,2,2_2*%
%TO.N,Net-(D4-A)*%
X113250000Y-118540000D03*
%TD*%
D17*
%TO.P,D16,1,VDD_1*%
%TO.N,+5V*%
X114400001Y-124647158D03*
%TO.P,D16,2,DOUT_2*%
%TO.N,Net-(D16-DOUT)*%
X114400001Y-126147158D03*
%TO.P,D16,3,VSS_3*%
%TO.N,GND*%
X119600001Y-126147158D03*
%TO.P,D16,4,DIN_4*%
%TO.N,Net-(D15-DOUT)*%
X119600001Y-124647158D03*
%TD*%
D13*
%TO.P,D6,1,K_1*%
%TO.N,Row 1*%
X145750000Y-106310000D03*
D11*
%TO.P,D6,2,A_2*%
%TO.N,Net-(D6-A)*%
X145750000Y-98690000D03*
%TD*%
D12*
%TO.P,SW8,1,1_1*%
%TO.N,Col 1*%
X157600000Y-97000000D03*
%TO.P,SW8,2,2_2*%
%TO.N,Net-(D9-A)*%
X151250000Y-99540000D03*
%TD*%
%TO.P,SW2,1,1_1*%
%TO.N,Col 1*%
X119600000Y-97000000D03*
%TO.P,SW2,2,2_2*%
%TO.N,Net-(D3-A)*%
X113250000Y-99540000D03*
%TD*%
D17*
%TO.P,D15,1,VDD_1*%
%TO.N,+5V*%
X152650001Y-105647158D03*
%TO.P,D15,2,DOUT_2*%
%TO.N,Net-(D15-DOUT)*%
X152650001Y-107147158D03*
%TO.P,D15,3,VSS_3*%
%TO.N,GND*%
X157850001Y-107147158D03*
%TO.P,D15,4,DIN_4*%
%TO.N,Net-(D14-DOUT)*%
X157850001Y-105647158D03*
%TD*%
D13*
%TO.P,D2,1,K_1*%
%TO.N,Row 0*%
X107500000Y-87060000D03*
D11*
%TO.P,D2,2,A_2*%
%TO.N,Net-(D2-A)*%
X107500000Y-79440000D03*
%TD*%
D17*
%TO.P,D17,1,VDD_1*%
%TO.N,+5V*%
X133400001Y-124647158D03*
%TO.P,D17,2,DOUT_2*%
%TO.N,Net-(D17-DOUT)*%
X133400001Y-126147158D03*
%TO.P,D17,3,VSS_3*%
%TO.N,GND*%
X138600001Y-126147158D03*
%TO.P,D17,4,DIN_4*%
%TO.N,Net-(D16-DOUT)*%
X138600001Y-124647158D03*
%TD*%
%TO.P,D14,1,VDD_1*%
%TO.N,+5V*%
X133400001Y-105647158D03*
%TO.P,D14,2,DOUT_2*%
%TO.N,Net-(D14-DOUT)*%
X133400001Y-107147158D03*
%TO.P,D14,3,VSS_3*%
%TO.N,GND*%
X138600001Y-107147158D03*
%TO.P,D14,4,DIN_4*%
%TO.N,Net-(D13-DOUT)*%
X138600001Y-105647158D03*
%TD*%
%TO.P,D13,1,VDD_1*%
%TO.N,+5V*%
X114400001Y-105647158D03*
%TO.P,D13,2,DOUT_2*%
%TO.N,Net-(D13-DOUT)*%
X114400001Y-107147158D03*
%TO.P,D13,3,VSS_3*%
%TO.N,GND*%
X119600001Y-107147158D03*
%TO.P,D13,4,DIN_4*%
%TO.N,Net-(D12-DOUT)*%
X119600001Y-105647158D03*
%TD*%
D12*
%TO.P,SW1,1,1_1*%
%TO.N,Col 0*%
X119600000Y-77960000D03*
%TO.P,SW1,2,2_2*%
%TO.N,Net-(D2-A)*%
X113250000Y-80500000D03*
%TD*%
%TO.P,SW9,1,1_1*%
%TO.N,Col 2*%
X157600000Y-115960000D03*
%TO.P,SW9,2,2_2*%
%TO.N,Net-(D10-A)*%
X151250000Y-118500000D03*
%TD*%
D10*
%TO.P,D4,1,K_1*%
%TO.N,Row 0*%
X108750000Y-117940000D03*
D11*
%TO.P,D4,2,A_2*%
%TO.N,Net-(D4-A)*%
X108750000Y-125560000D03*
%TD*%
D17*
%TO.P,D11,1,VDD_1*%
%TO.N,+5V*%
X133675001Y-86897158D03*
%TO.P,D11,2,DOUT_2*%
%TO.N,Net-(D11-DOUT)*%
X133675001Y-88397158D03*
%TO.P,D11,3,VSS_3*%
%TO.N,GND*%
X138875001Y-88397158D03*
%TO.P,D11,4,DIN_4*%
%TO.N,Net-(D1-DOUT)*%
X138875001Y-86897158D03*
%TD*%
D13*
%TO.P,D9,1,K_1*%
%TO.N,Row 2*%
X164500000Y-105810000D03*
D11*
%TO.P,D9,2,A_2*%
%TO.N,Net-(D9-A)*%
X164500000Y-98190000D03*
%TD*%
D10*
%TO.P,D10,1,K_1*%
%TO.N,Row 2*%
X164750000Y-117940000D03*
D11*
%TO.P,D10,2,A_2*%
%TO.N,Net-(D10-A)*%
X164750000Y-125560000D03*
%TD*%
D18*
%TO.P,D7,1,K_1*%
%TO.N,Row 1*%
X132940000Y-130500000D03*
D11*
%TO.P,D7,2,A_2*%
%TO.N,Net-(D7-A)*%
X140560000Y-130500000D03*
%TD*%
D19*
%TO.P,D5,1,K_1*%
%TO.N,Row 1*%
X140810000Y-73250000D03*
D11*
%TO.P,D5,2,A_2*%
%TO.N,Net-(D5-A)*%
X133190000Y-73250000D03*
%TD*%
D12*
%TO.P,SW5,1,1_1*%
%TO.N,Col 1*%
X138600000Y-96960000D03*
%TO.P,SW5,2,2_2*%
%TO.N,Net-(D6-A)*%
X132250000Y-99500000D03*
%TD*%
D20*
%TO.P,U1,1,PA02_A0_D0_1*%
%TO.N,Col 0*%
X154375000Y-46130000D03*
D21*
%TO.P,U1,2,PA4_A1_D1_2*%
%TO.N,Col 1*%
X154375000Y-48670000D03*
%TO.P,U1,3,PA10_A2_D2_3*%
%TO.N,Col 2*%
X154375000Y-51210000D03*
%TO.P,U1,4,PA11_A3_D3_4*%
%TO.N,Row 0*%
X154375000Y-53750000D03*
%TO.P,U1,5,PA8_A4_D4_SDA_5*%
%TO.N,SDA*%
X154375000Y-56290000D03*
%TO.P,U1,6,PA9_A5_D5_SCL_6*%
%TO.N,SCL*%
X154375000Y-58830000D03*
%TO.P,U1,7,PB08_A6_D6_TX_7*%
%TO.N,Row 1*%
X154375000Y-61370000D03*
%TO.P,U1,8,PB09_A7_D7_RX_8*%
%TO.N,RNB*%
X137125000Y-61370000D03*
%TO.P,U1,9,PA7_A8_D8_SCK_9*%
%TO.N,RNA*%
X137125000Y-58830000D03*
%TO.P,U1,10,PA5_A9_D9_MISO_10*%
%TO.N,Row 2*%
X137125000Y-56290000D03*
D22*
%TO.P,U1,11,PA6_A10_D10_MOSI_11*%
%TO.N,LED*%
X137125000Y-53750000D03*
%TO.P,U1,12,3V3_12*%
%TO.N,unconnected-(U1-3V3-Pad12)*%
X137125000Y-51210000D03*
%TO.P,U1,13,GND_13*%
%TO.N,GND*%
X137125000Y-48670000D03*
%TO.P,U1,14,5V_14*%
%TO.N,+5V*%
X137125000Y-46130000D03*
%TD*%
D23*
%TO.P,U2,4,SDA_4*%
%TO.N,SDA*%
X129250000Y-57440000D03*
%TO.P,U2,3,SCL_3*%
%TO.N,SCL*%
X129250000Y-59980000D03*
%TO.P,U2,2,VCC_2*%
%TO.N,+5V*%
X129250000Y-62520000D03*
D24*
%TO.P,U2,1,GND_1*%
%TO.N,GND*%
X129250000Y-65060000D03*
%TD*%
D25*
%TO.N,Net-(D8-A)*%
X158250000Y-80500000D03*
%TO.N,GND*%
X125300000Y-98300000D03*
X121000000Y-110750000D03*
X120500000Y-122000000D03*
%TO.N,Net-(D12-DOUT)*%
X119750000Y-103500000D03*
X154750000Y-93000000D03*
%TO.N,Net-(D11-DOUT)*%
X131750000Y-88500000D03*
X157500000Y-84500000D03*
%TO.N,Net-(D17-DOUT)*%
X158000000Y-122500000D03*
X127750000Y-126250000D03*
%TO.N,Net-(D1-DOUT)*%
X141000000Y-86250000D03*
X127750000Y-79250000D03*
%TO.N,LED*%
X122000000Y-85500000D03*
X125000000Y-81500000D03*
%TO.N,Col 2*%
X165500000Y-114500000D03*
%TO.N,Net-(D16-DOUT)*%
X141000000Y-125000000D03*
X144250000Y-129350000D03*
%TO.N,Net-(D15-DOUT)*%
X119500000Y-123000000D03*
X125000000Y-117250000D03*
%TO.N,Row 1*%
X146750000Y-91250000D03*
X146500000Y-83750000D03*
X151000000Y-110250000D03*
X132250000Y-123000000D03*
%TO.N,Net-(D9-A)*%
X159000000Y-99250000D03*
%TO.N,Net-(D14-DOUT)*%
X131750000Y-106750000D03*
X157750000Y-103750000D03*
%TD*%
%TO.N,SCL*%
D26*
X153375000Y-58830000D02*
X154411346Y-58830000D01*
X154411346Y-58830000D02*
X156475000Y-56766346D01*
X156475000Y-56766346D02*
X156475000Y-55813654D01*
X156475000Y-55813654D02*
X155801346Y-55140000D01*
X155801346Y-55140000D02*
X152948654Y-55140000D01*
X152948654Y-55140000D02*
X147868654Y-50060000D01*
X147868654Y-50060000D02*
X135003654Y-50060000D01*
X135003654Y-50060000D02*
X128100000Y-56963654D01*
X128100000Y-58830000D02*
X129250000Y-59980000D01*
X128100000Y-56963654D02*
X128100000Y-58830000D01*
%TO.N,SDA*%
X153375000Y-56290000D02*
X149685000Y-52600000D01*
X149685000Y-52600000D02*
X134090000Y-52600000D01*
X134090000Y-52600000D02*
X129250000Y-57440000D01*
%TO.N,Row 0*%
X153375000Y-53750000D02*
X144375000Y-44750000D01*
X144375000Y-44750000D02*
X118202945Y-44750000D01*
X118202945Y-44750000D02*
X105250000Y-57702945D01*
X105250000Y-57702945D02*
X105250000Y-84810000D01*
X105250000Y-84810000D02*
X107500000Y-87060000D01*
%TO.N,Col 2*%
X153375000Y-51210000D02*
X154411346Y-51210000D01*
X154411346Y-51210000D02*
X165850000Y-62648654D01*
X165850000Y-62648654D02*
X165850000Y-114150000D01*
X165850000Y-114150000D02*
X165500000Y-114500000D01*
%TO.N,Row 2*%
X138125000Y-56290000D02*
X139562944Y-57727944D01*
X139562944Y-57727944D02*
X139562944Y-64160000D01*
%TO.N,LED*%
X138125000Y-53750000D02*
X137088654Y-53750000D01*
X130800000Y-60038654D02*
X130800000Y-68033654D01*
X137088654Y-53750000D02*
X130800000Y-60038654D01*
X130800000Y-68033654D02*
X128750000Y-70083654D01*
%TO.N,Net-(D3-A)*%
X113250000Y-99540000D02*
X113250000Y-102507056D01*
X113250000Y-102507056D02*
X108697056Y-107060000D01*
X108697056Y-107060000D02*
X107750000Y-107060000D01*
%TO.N,Net-(D5-A)*%
X132250000Y-74190000D02*
X133190000Y-73250000D01*
X132250000Y-80500000D02*
X132250000Y-74190000D01*
%TO.N,Net-(D8-A)*%
X158250000Y-80500000D02*
X159810000Y-78940000D01*
X159810000Y-78940000D02*
X164750000Y-78940000D01*
%TO.N,Row 2*%
X139562944Y-64160000D02*
X161962944Y-86560000D01*
X161962944Y-86560000D02*
X164750000Y-86560000D01*
%TO.N,GND*%
X119725000Y-88500000D02*
X119725000Y-88000000D01*
X121975000Y-128500000D02*
X119725000Y-126250000D01*
X138975000Y-88500000D02*
X138949363Y-88525637D01*
X140250000Y-90250000D02*
X140250000Y-89775000D01*
X156200000Y-99896598D02*
X158950000Y-102646598D01*
X119725000Y-107250000D02*
X130750000Y-107250000D01*
X122503654Y-55100000D02*
X108418630Y-55100000D01*
X121000000Y-110750000D02*
X121000000Y-108525000D01*
X140250000Y-107750000D02*
X139750000Y-107250000D01*
X107750000Y-62000000D02*
X127103654Y-62000000D01*
X139250000Y-108750000D02*
X140250000Y-107750000D01*
X105650000Y-57868630D02*
X105650000Y-82465686D01*
X128773654Y-63670000D02*
X129726346Y-63670000D01*
X158950000Y-102646598D02*
X158950000Y-106275000D01*
X119725000Y-126250000D02*
X120700000Y-125275000D01*
X158950000Y-106275000D02*
X157975000Y-107250000D01*
X129726346Y-61370000D02*
X128773654Y-61370000D01*
X119600001Y-89600001D02*
X119600001Y-88147158D01*
X157975000Y-107250000D02*
X161340000Y-110615000D01*
X140250000Y-90750000D02*
X140500000Y-90500000D01*
X119725000Y-88000000D02*
X120225000Y-88500000D01*
X156200000Y-90300000D02*
X156200000Y-99896598D01*
X138725000Y-126250000D02*
X138725000Y-128025000D01*
X125250000Y-98250000D02*
X125250000Y-94025000D01*
X157725000Y-88250000D02*
X157725000Y-88775000D01*
X138250000Y-128500000D02*
X121975000Y-128500000D01*
X138643750Y-88525637D02*
X138552607Y-88365242D01*
X157699363Y-88275637D02*
X157393750Y-88275637D01*
X161340000Y-123135000D02*
X158225000Y-126250000D01*
X125300000Y-98300000D02*
X125250000Y-98250000D01*
X161340000Y-110615000D02*
X161340000Y-123135000D01*
X157725000Y-88250000D02*
X157699363Y-88275637D01*
X130750000Y-107250000D02*
X132250000Y-108750000D01*
X120225000Y-88500000D02*
X130000000Y-88500000D01*
X120700000Y-125275000D02*
X120700000Y-122200000D01*
X130400000Y-62043654D02*
X129726346Y-61370000D01*
X140250000Y-89775000D02*
X138975000Y-88500000D01*
X121000000Y-108525000D02*
X119725000Y-107250000D01*
X128773654Y-61370000D02*
X122503654Y-55100000D01*
X138725000Y-128025000D02*
X138250000Y-128500000D01*
X158225000Y-128525000D02*
X158000000Y-128750000D01*
X157393750Y-88275637D02*
X157302607Y-88115242D01*
X139750000Y-107250000D02*
X138725000Y-107250000D01*
X157725000Y-88775000D02*
X156200000Y-90300000D01*
X132250000Y-108750000D02*
X139250000Y-108750000D01*
X132250000Y-90750000D02*
X140250000Y-90750000D01*
X108418630Y-55100000D02*
X105650000Y-57868630D01*
X129726346Y-63670000D02*
X130400000Y-62996346D01*
X112934314Y-89750000D02*
X119750000Y-89750000D01*
X138949363Y-88525637D02*
X138643750Y-88525637D01*
X120700000Y-122200000D02*
X120500000Y-122000000D01*
X105650000Y-82465686D02*
X112934314Y-89750000D01*
X130000000Y-88500000D02*
X132250000Y-90750000D01*
X119750000Y-89750000D02*
X119600001Y-89600001D01*
X158000000Y-128750000D02*
X141225000Y-128750000D01*
X158225000Y-126250000D02*
X158225000Y-128525000D01*
X140500000Y-90500000D02*
X140250000Y-90250000D01*
X127103654Y-62000000D02*
X128773654Y-63670000D01*
X125250000Y-94025000D02*
X119725000Y-88500000D01*
X141225000Y-128750000D02*
X138725000Y-126250000D01*
X130400000Y-62996346D02*
X130400000Y-62043654D01*
%TO.N,+5V*%
X133275000Y-101501598D02*
X133275000Y-105750000D01*
X124053402Y-105750000D02*
X118033402Y-99730000D01*
X124530000Y-57800000D02*
X129250000Y-62520000D01*
X149386598Y-85390000D02*
X150746598Y-86750000D01*
X114275000Y-82501598D02*
X114275000Y-86500000D01*
X128350000Y-79001471D02*
X125908529Y-76560000D01*
X116086598Y-99730000D02*
X114275000Y-101541598D01*
X116086598Y-80690000D02*
X114275000Y-82501598D01*
X152275000Y-86750000D02*
X151587842Y-87437158D01*
X151992944Y-124750000D02*
X152775000Y-124750000D01*
X125908529Y-76560000D02*
X117971522Y-76560000D01*
X106050000Y-64638478D02*
X106050000Y-58034315D01*
X152710000Y-94240000D02*
X152710000Y-105565000D01*
X151587842Y-87437158D02*
X151521501Y-87437158D01*
X106284315Y-57800000D02*
X124530000Y-57800000D01*
X133525000Y-85975000D02*
X134110000Y-85390000D01*
X133525000Y-87000000D02*
X133525000Y-85975000D01*
X151600000Y-86750000D02*
X152275000Y-86750000D01*
X118033402Y-99730000D02*
X116086598Y-99730000D01*
X134110000Y-85390000D02*
X149386598Y-85390000D01*
X111750000Y-106658658D02*
X112761500Y-105647158D01*
X150746598Y-86750000D02*
X152275000Y-86750000D01*
X151771501Y-106437158D02*
X151550001Y-106658658D01*
X106050000Y-58034315D02*
X106284315Y-57800000D01*
X111750000Y-110750000D02*
X111850000Y-110850000D01*
X114275000Y-82501599D02*
X116926599Y-79850000D01*
X116926599Y-79850000D02*
X127998529Y-79850000D01*
X143093402Y-105750000D02*
X137033402Y-99690000D01*
X127998529Y-79850000D02*
X128350000Y-79498529D01*
X114275000Y-120541598D02*
X116086598Y-118730000D01*
X114275000Y-121677944D02*
X114275000Y-120541598D01*
X133275000Y-105750000D02*
X124053402Y-105750000D01*
X114400001Y-121802945D02*
X114275000Y-121677944D01*
X133525000Y-87000000D02*
X127797056Y-87000000D01*
X144753402Y-107410000D02*
X143093402Y-105750000D01*
X150865000Y-107410000D02*
X144753402Y-107410000D01*
X114275000Y-101541598D02*
X114275000Y-105522157D01*
X150750000Y-87500000D02*
X150750000Y-92280000D01*
X134986598Y-118730000D02*
X145972944Y-118730000D01*
X121487056Y-80690000D02*
X116086598Y-80690000D01*
X133275000Y-120441598D02*
X134986598Y-118730000D01*
X151521501Y-87437158D02*
X151458659Y-87500000D01*
X111850000Y-110850000D02*
X111850000Y-119252944D01*
X151550001Y-106658658D02*
X151550001Y-106724999D01*
X114400001Y-124647158D02*
X114400001Y-121802945D01*
X117971522Y-76560000D02*
X106050000Y-64638478D01*
X135086598Y-99690000D02*
X133275000Y-101501598D01*
X145972944Y-118730000D02*
X151992944Y-124750000D01*
X150750000Y-92280000D02*
X152710000Y-94240000D01*
X152710000Y-105565000D02*
X151837842Y-106437158D01*
X111750000Y-106658658D02*
X111750000Y-110750000D01*
X137033402Y-99690000D02*
X135086598Y-99690000D01*
X132710000Y-124750000D02*
X133275000Y-124750000D01*
X151550001Y-106724999D02*
X150865000Y-107410000D01*
X112761500Y-105647158D02*
X114400001Y-105647158D01*
X127797056Y-87000000D02*
X121487056Y-80690000D01*
X114275000Y-86500000D02*
X114275000Y-82501599D01*
X111850000Y-119252944D02*
X114275000Y-121677944D01*
X151458659Y-87500000D02*
X150750000Y-87500000D01*
X143250000Y-105750000D02*
X143093402Y-105750000D01*
X133275000Y-124750000D02*
X133275000Y-120441598D01*
X128350000Y-79498529D02*
X128350000Y-79001471D01*
X114275000Y-105522157D02*
X114400001Y-105647158D01*
X116086598Y-118730000D02*
X126690000Y-118730000D01*
X151837842Y-106437158D02*
X151771501Y-106437158D01*
X126690000Y-118730000D02*
X132710000Y-124750000D01*
%TO.N,Net-(D12-DOUT)*%
X152275000Y-90525000D02*
X154750000Y-93000000D01*
X152275000Y-88250000D02*
X152275000Y-90525000D01*
X119725000Y-103525000D02*
X119725000Y-105750000D01*
X119750000Y-103500000D02*
X119725000Y-103525000D01*
%TO.N,Net-(D11-DOUT)*%
X131750000Y-88500000D02*
X133525000Y-88500000D01*
X157725000Y-84975000D02*
X157725000Y-86750000D01*
X157500000Y-84500000D02*
X157500000Y-84750000D01*
X157500000Y-84750000D02*
X157725000Y-84975000D01*
%TO.N,Net-(D17-DOUT)*%
X127750000Y-126250000D02*
X133275000Y-126250000D01*
X158000000Y-122500000D02*
X158225000Y-122725000D01*
X158225000Y-122725000D02*
X158225000Y-124750000D01*
%TO.N,Net-(D1-DOUT)*%
X112000000Y-88250000D02*
X112000000Y-87750000D01*
X112250000Y-87320000D02*
X113180000Y-86390000D01*
X141000000Y-86250000D02*
X140750000Y-86250000D01*
X140750000Y-86250000D02*
X140000000Y-87000000D01*
X113180000Y-86390000D02*
X113180000Y-83030913D01*
X127640000Y-79360000D02*
X127750000Y-79250000D01*
X116850913Y-79360000D02*
X127640000Y-79360000D01*
X112000000Y-87750000D02*
X112250000Y-87500000D01*
X114275000Y-88000000D02*
X113775000Y-88500000D01*
X112250000Y-88500000D02*
X112000000Y-88250000D01*
X112250000Y-87500000D02*
X112250000Y-87320000D01*
X140000000Y-87000000D02*
X138975000Y-87000000D01*
X113775000Y-88500000D02*
X112250000Y-88500000D01*
X113180000Y-83030913D02*
X116850913Y-79360000D01*
%TO.N,LED*%
X128750000Y-70083654D02*
X128750000Y-79664215D01*
X126914215Y-81500000D02*
X125000000Y-81500000D01*
%TO.N,RNB*%
X138250000Y-61620000D02*
X137213654Y-61620000D01*
%TO.N,LED*%
X128750000Y-79664215D02*
X126914215Y-81500000D01*
X122000000Y-85500000D02*
X121000000Y-86500000D01*
X121000000Y-86500000D02*
X119725000Y-86500000D01*
%TO.N,SCL*%
X153500000Y-59080000D02*
X154536346Y-59080000D01*
X129740000Y-60470000D02*
X129250000Y-59980000D01*
%TO.N,SDA*%
X129500000Y-57690000D02*
X129250000Y-57440000D01*
%TO.N,Net-(D16-DOUT)*%
X114275000Y-130025000D02*
X114500000Y-130250000D01*
X114500000Y-130250000D02*
X115500000Y-129250000D01*
X144250000Y-129250000D02*
X144250000Y-129350000D01*
X115500000Y-129250000D02*
X144250000Y-129250000D01*
X141000000Y-125000000D02*
X140750000Y-124750000D01*
X140750000Y-124750000D02*
X138725000Y-124750000D01*
X114275000Y-126250000D02*
X114275000Y-130025000D01*
%TO.N,Net-(D15-DOUT)*%
X119500000Y-123000000D02*
X119500000Y-124525000D01*
X152525000Y-107250000D02*
X147875000Y-111900000D01*
X147875000Y-111900000D02*
X130350000Y-111900000D01*
X119500000Y-124525000D02*
X119725000Y-124750000D01*
X130350000Y-111900000D02*
X125000000Y-117250000D01*
%TO.N,Row 1*%
X143850000Y-117400000D02*
X135750912Y-117400000D01*
X146750000Y-91250000D02*
X146850000Y-91350000D01*
X135750912Y-117400000D02*
X132250000Y-120900912D01*
X132250000Y-120900912D02*
X132250000Y-123000000D01*
X140810000Y-78060000D02*
X146500000Y-83750000D01*
X146850000Y-91350000D02*
X146850000Y-105210000D01*
X151000000Y-110250000D02*
X143850000Y-117400000D01*
X146850000Y-105210000D02*
X145750000Y-106310000D01*
X140810000Y-73250000D02*
X140810000Y-78060000D01*
%TO.N,Net-(D9-A)*%
X160060000Y-98190000D02*
X164500000Y-98190000D01*
X159000000Y-99250000D02*
X160060000Y-98190000D01*
%TO.N,Net-(D14-DOUT)*%
X132250000Y-107250000D02*
X131750000Y-106750000D01*
X157975000Y-103975000D02*
X157975000Y-105750000D01*
X157750000Y-103750000D02*
X157975000Y-103975000D01*
X133275000Y-107250000D02*
X132250000Y-107250000D01*
%TO.N,Net-(D2-A)*%
X108560000Y-80500000D02*
X107500000Y-79440000D01*
X113250000Y-80500000D02*
X108560000Y-80500000D01*
%TO.N,Net-(D13-DOUT)*%
X114275000Y-107250000D02*
X114275000Y-111475000D01*
X114275000Y-111475000D02*
X114250000Y-111500000D01*
X137065686Y-111500000D02*
X140650000Y-107915686D01*
X140650000Y-107584314D02*
X138815686Y-105750000D01*
X138815686Y-105750000D02*
X138725000Y-105750000D01*
X140650000Y-107915686D02*
X140650000Y-107584314D01*
X114250000Y-111500000D02*
X137065686Y-111500000D01*
%TD*%
M02*
