M48
; DRILL file KiCad 10.0.3 date 2026-08-08T19:14:16
; FORMAT={-:-/ absolute / metric / decimal}
; #@! TF.CreationDate,2026-08-08T19:14:16-04:00
; #@! TF.GenerationSoftware,Kicad,Pcbnew,10.0.3
; #@! TF.FileFunction,NonPlated,1,2,NPTH
FMAT,2
METRIC
; #@! TA.AperFunction,NonPlated,NPTH,ComponentDrill
T1C1.700
; #@! TA.AperFunction,NonPlated,NPTH,ComponentDrill
T2C2.200
; #@! TA.AperFunction,NonPlated,NPTH,ComponentDrill
T3C4.000
%
G90
G05
T1
X111.98Y-83.04
X111.98Y-102.08
X111.98Y-121.08
X122.14Y-83.04
X122.14Y-102.08
X122.14Y-121.08
X130.88Y-121.08
X130.98Y-83.04
X130.98Y-102.04
X141.04Y-121.08
X141.14Y-83.04
X141.14Y-102.04
X149.98Y-83.04
X149.98Y-102.08
X149.98Y-121.04
X160.14Y-83.04
X160.14Y-102.08
X160.14Y-121.04
T2
X100.25Y-46.91
X100.5Y-133.25
X172.5Y-133.25
X172.8Y-46.91
T3
X117.06Y-83.04
X117.06Y-102.08
X117.06Y-121.08
X135.96Y-121.08
X136.06Y-83.04
X136.06Y-102.04
X155.06Y-83.04
X155.06Y-102.08
X155.06Y-121.04
M30
