M48
; DRILL file KiCad 10.0.3 date 2026-08-08T19:14:16
; FORMAT={-:-/ absolute / metric / decimal}
; #@! TF.CreationDate,2026-08-08T19:14:16-04:00
; #@! TF.GenerationSoftware,Kicad,Pcbnew,10.0.3
; #@! TF.FileFunction,Plated,1,2,PTH
FMAT,2
METRIC
; #@! TA.AperFunction,Plated,PTH,ViaDrill
T1C0.300
; #@! TA.AperFunction,Plated,PTH,ComponentDrill
T2C0.800
; #@! TA.AperFunction,Plated,PTH,ComponentDrill
T3C1.000
; #@! TA.AperFunction,Plated,PTH,ComponentDrill
T4C1.500
%
G90
G05
T1
X119.5Y-123.0
X119.75Y-103.5
X120.5Y-122.0
X121.0Y-110.75
X122.0Y-85.5
X125.0Y-81.5
X125.0Y-117.25
X125.3Y-98.3
X127.75Y-79.25
X127.75Y-126.25
X131.75Y-88.5
X131.75Y-106.75
X132.25Y-123.0
X141.0Y-86.25
X141.0Y-125.0
X144.25Y-129.35
X146.5Y-83.75
X146.75Y-91.25
X148.25Y-70.75
X151.0Y-110.25
X154.75Y-93.0
X157.5Y-84.5
X157.75Y-103.75
X158.0Y-122.5
X158.25Y-80.5
X159.0Y-99.25
X165.5Y-114.5
T2
X107.5Y-79.44
X107.5Y-87.06
X107.75Y-99.44
X107.75Y-107.06
X108.75Y-117.94
X108.75Y-125.56
X132.94Y-130.5
X133.19Y-73.25
X140.56Y-130.5
X140.81Y-73.25
X145.75Y-98.69
X145.75Y-106.31
X164.5Y-98.19
X164.5Y-105.81
X164.75Y-78.94
X164.75Y-86.56
X164.75Y-117.94
X164.75Y-125.56
T3
X107.75Y-59.5
X107.75Y-62.0
X107.75Y-64.5
X122.25Y-59.5
X122.25Y-64.5
X129.25Y-57.44
X129.25Y-59.98
X129.25Y-62.52
X129.25Y-65.06
X138.25Y-54.0
X138.25Y-56.54
X138.25Y-59.08
X138.25Y-61.62
X138.25Y-64.16
X138.25Y-66.7
X138.25Y-69.24
X153.5Y-54.0
X153.5Y-56.54
X153.5Y-59.08
X153.5Y-61.62
X153.5Y-64.16
X153.5Y-66.7
X153.5Y-69.24
T4
X113.25Y-80.5
X113.25Y-99.54
X113.25Y-118.54
X119.6Y-77.96
X119.6Y-97.0
X119.6Y-116.0
X132.15Y-118.54
X132.25Y-80.5
X132.25Y-99.5
X138.5Y-116.0
X138.6Y-77.96
X138.6Y-96.96
X151.25Y-80.5
X151.25Y-99.54
X151.25Y-118.5
X157.6Y-77.96
X157.6Y-97.0
X157.6Y-115.96
T4
X114.6Y-56.4G85X115.9Y-56.4
G05
X114.6Y-67.6G85X115.9Y-67.6
G05
M30
