%TF.GenerationSoftware,KiCad,Pcbnew,10.0.3*%
%TF.CreationDate,2026-08-08T19:13:39-04:00*%
%TF.ProjectId,Macropad,4d616372-6f70-4616-942e-6b696361645f,rev?*%
%TF.SameCoordinates,Original*%
%TF.FileFunction,Copper,L1,Top*%
%TF.FilePolarity,Positive*%
%FSLAX46Y46*%
G04 Gerber Fmt 4.6, Leading zero omitted, Abs format (unit mm)*
G04 Created by KiCad (PCBNEW 10.0.3) date 2026-08-08 19:13:39*
%MOMM*%
%LPD*%
G01*
G04 APERTURE LIST*
G04 Aperture macros list*
%AMRoundRect*
0 Rectangle with rounded corners*
0 $1 Rounding radius*
0 $2 $3 $4 $5 $6 $7 $8 $9 X,Y pos of 4 corners*
0 Add a 4 corners polygon primitive as box body*
4,1,4,$2,$3,$4,$5,$6,$7,$8,$9,$2,$3,0*
0 Add four circle primitives for the rounded corners*
1,1,$1+$1,$2,$3*
1,1,$1+$1,$4,$5*
1,1,$1+$1,$6,$7*
1,1,$1+$1,$8,$9*
0 Add four rect primitives between the rounded corners*
20,1,$1+$1,$2,$3,$4,$5,0*
20,1,$1+$1,$4,$5,$6,$7,0*
20,1,$1+$1,$6,$7,$8,$9,0*
20,1,$1+$1,$8,$9,$2,$3,0*%
G04 Aperture macros list end*
%TA.AperFunction,ComponentPad*%
%ADD10RoundRect,0.250000X-0.550000X0.550000X-0.550000X-0.550000X0.550000X-0.550000X0.550000X0.550000X0*%
%TD*%
%TA.AperFunction,ComponentPad*%
%ADD11C,1.600000*%
%TD*%
%TA.AperFunction,ComponentPad*%
%ADD12C,2.200000*%
%TD*%
%TA.AperFunction,ComponentPad*%
%ADD13RoundRect,0.250000X0.550000X-0.550000X0.550000X0.550000X-0.550000X0.550000X-0.550000X-0.550000X0*%
%TD*%
%TA.AperFunction,ComponentPad*%
%ADD14R,2.000000X2.000000*%
%TD*%
%TA.AperFunction,ComponentPad*%
%ADD15C,2.000000*%
%TD*%
%TA.AperFunction,ComponentPad*%
%ADD16R,3.200000X2.000000*%
%TD*%
%TA.AperFunction,ComponentPad*%
%ADD17RoundRect,0.170000X0.680000X-0.680000X0.680000X0.680000X-0.680000X0.680000X-0.680000X-0.680000X0*%
%TD*%
%TA.AperFunction,ComponentPad*%
%ADD18C,1.700000*%
%TD*%
%TA.AperFunction,ComponentPad*%
%ADD19RoundRect,0.250000X-0.550000X-0.550000X0.550000X-0.550000X0.550000X0.550000X-0.550000X0.550000X0*%
%TD*%
%TA.AperFunction,ComponentPad*%
%ADD20RoundRect,0.250000X0.550000X0.550000X-0.550000X0.550000X-0.550000X-0.550000X0.550000X-0.550000X0*%
%TD*%
%TA.AperFunction,ComponentPad*%
%ADD21R,3.500000X1.700000*%
%TD*%
%TA.AperFunction,ComponentPad*%
%ADD22O,3.600000X1.700000*%
%TD*%
%TA.AperFunction,ComponentPad*%
%ADD23O,3.700000X1.700000*%
%TD*%
%TA.AperFunction,ViaPad*%
%ADD24C,0.600000*%
%TD*%
%TA.AperFunction,Conductor*%
%ADD25C,0.200000*%
%TD*%
G04 APERTURE END LIST*
D10*
%TO.P,D3,1,K_1*%
%TO.N,Row 0*%
X107750000Y-99440000D03*
D11*
%TO.P,D3,2,A_2*%
%TO.N,Net-(D3-A)*%
X107750000Y-107060000D03*
%TD*%
D12*
%TO.P,SW4,1,1_1*%
%TO.N,Col 0*%
X138600000Y-77960000D03*
%TO.P,SW4,2,2_2*%
%TO.N,Net-(D5-A)*%
X132250000Y-80500000D03*
%TD*%
%TO.P,SW7,1,1_1*%
%TO.N,Col 0*%
X157600000Y-77960000D03*
%TO.P,SW7,2,2_2*%
%TO.N,Net-(D8-A)*%
X151250000Y-80500000D03*
%TD*%
D13*
%TO.P,D8,1,K_1*%
%TO.N,Row 2*%
X164750000Y-86560000D03*
D11*
%TO.P,D8,2,A_2*%
%TO.N,Net-(D8-A)*%
X164750000Y-78940000D03*
%TD*%
D14*
%TO.P,SW10,A,A_A*%
%TO.N,RNA*%
X107750000Y-59500000D03*
D15*
%TO.P,SW10,B,B_B*%
%TO.N,RNB*%
X107750000Y-64500000D03*
%TO.P,SW10,C,C_C*%
%TO.N,GND*%
X107750000Y-62000000D03*
D16*
%TO.P,SW10,MP*%
%TO.N,N/C*%
X115250000Y-56400000D03*
X115250000Y-67600000D03*
D15*
%TO.P,SW10,S1,S1_S1*%
%TO.N,unconnected-(SW10-PadS1)*%
X122250000Y-64500000D03*
%TO.P,SW10,S2,S2_S2*%
%TO.N,unconnected-(SW10-PadS2)*%
X122250000Y-59500000D03*
%TD*%
D12*
%TO.P,SW6,1,1_1*%
%TO.N,Col 2*%
X138500000Y-116000000D03*
%TO.P,SW6,2,2_2*%
%TO.N,Net-(D7-A)*%
X132150000Y-118540000D03*
%TD*%
D17*
%TO.P,U2,1,GND_1*%
%TO.N,GND*%
X129250000Y-65060000D03*
D18*
%TO.P,U2,2,VCC_2*%
%TO.N,+5V*%
X129250000Y-62520000D03*
%TO.P,U2,3,SCL_3*%
%TO.N,SCL*%
X129250000Y-59980000D03*
%TO.P,U2,4,SDA_4*%
%TO.N,SDA*%
X129250000Y-57440000D03*
%TD*%
D12*
%TO.P,SW3,1,1_1*%
%TO.N,Col 2*%
X119600000Y-116000000D03*
%TO.P,SW3,2,2_2*%
%TO.N,Net-(D4-A)*%
X113250000Y-118540000D03*
%TD*%
D13*
%TO.P,D6,1,K_1*%
%TO.N,Row 1*%
X145750000Y-106310000D03*
D11*
%TO.P,D6,2,A_2*%
%TO.N,Net-(D6-A)*%
X145750000Y-98690000D03*
%TD*%
D12*
%TO.P,SW8,1,1_1*%
%TO.N,Col 1*%
X157600000Y-97000000D03*
%TO.P,SW8,2,2_2*%
%TO.N,Net-(D9-A)*%
X151250000Y-99540000D03*
%TD*%
%TO.P,SW2,1,1_1*%
%TO.N,Col 1*%
X119600000Y-97000000D03*
%TO.P,SW2,2,2_2*%
%TO.N,Net-(D3-A)*%
X113250000Y-99540000D03*
%TD*%
D13*
%TO.P,D2,1,K_1*%
%TO.N,Row 0*%
X107500000Y-87060000D03*
D11*
%TO.P,D2,2,A_2*%
%TO.N,Net-(D2-A)*%
X107500000Y-79440000D03*
%TD*%
D12*
%TO.P,SW1,1,1_1*%
%TO.N,Col 0*%
X119600000Y-77960000D03*
%TO.P,SW1,2,2_2*%
%TO.N,Net-(D2-A)*%
X113250000Y-80500000D03*
%TD*%
%TO.P,SW9,1,1_1*%
%TO.N,Col 2*%
X157600000Y-115960000D03*
%TO.P,SW9,2,2_2*%
%TO.N,Net-(D10-A)*%
X151250000Y-118500000D03*
%TD*%
D10*
%TO.P,D4,1,K_1*%
%TO.N,Row 0*%
X108750000Y-117940000D03*
D11*
%TO.P,D4,2,A_2*%
%TO.N,Net-(D4-A)*%
X108750000Y-125560000D03*
%TD*%
D13*
%TO.P,D9,1,K_1*%
%TO.N,Row 2*%
X164500000Y-105810000D03*
D11*
%TO.P,D9,2,A_2*%
%TO.N,Net-(D9-A)*%
X164500000Y-98190000D03*
%TD*%
D10*
%TO.P,D10,1,K_1*%
%TO.N,Row 2*%
X164750000Y-117940000D03*
D11*
%TO.P,D10,2,A_2*%
%TO.N,Net-(D10-A)*%
X164750000Y-125560000D03*
%TD*%
D19*
%TO.P,D7,1,K_1*%
%TO.N,Row 1*%
X132940000Y-130500000D03*
D11*
%TO.P,D7,2,A_2*%
%TO.N,Net-(D7-A)*%
X140560000Y-130500000D03*
%TD*%
D20*
%TO.P,D5,1,K_1*%
%TO.N,Row 1*%
X140810000Y-73250000D03*
D11*
%TO.P,D5,2,A_2*%
%TO.N,Net-(D5-A)*%
X133190000Y-73250000D03*
%TD*%
D12*
%TO.P,SW5,1,1_1*%
%TO.N,Col 1*%
X138600000Y-96960000D03*
%TO.P,SW5,2,2_2*%
%TO.N,Net-(D6-A)*%
X132250000Y-99500000D03*
%TD*%
D21*
%TO.P,U1,1,PA02_A0_D0_1*%
%TO.N,Col 0*%
X154500000Y-54000000D03*
D22*
%TO.P,U1,2,PA4_A1_D1_2*%
%TO.N,Col 1*%
X154500000Y-56540000D03*
%TO.P,U1,3,PA10_A2_D2_3*%
%TO.N,Col 2*%
X154500000Y-59080000D03*
%TO.P,U1,4,PA11_A3_D3_4*%
%TO.N,Row 0*%
X154500000Y-61620000D03*
%TO.P,U1,5,PA8_A4_D4_SDA_5*%
%TO.N,SDA*%
X154500000Y-64160000D03*
%TO.P,U1,6,PA9_A5_D5_SCL_6*%
%TO.N,SCL*%
X154500000Y-66700000D03*
%TO.P,U1,7,PB08_A6_D6_TX_7*%
%TO.N,Row 1*%
X154500000Y-69240000D03*
%TO.P,U1,8,PB09_A7_D7_RX_8*%
%TO.N,RNB*%
X137250000Y-69240000D03*
%TO.P,U1,9,PA7_A8_D8_SCK_9*%
%TO.N,RNA*%
X137250000Y-66700000D03*
%TO.P,U1,10,PA5_A9_D9_MISO_10*%
%TO.N,Row 2*%
X137250000Y-64160000D03*
D23*
%TO.P,U1,11,PA6_A10_D10_MOSI_11*%
%TO.N,LED*%
X137250000Y-61620000D03*
%TO.P,U1,12,3V3_12*%
%TO.N,unconnected-(U1-3V3-Pad12)*%
X137250000Y-59080000D03*
%TO.P,U1,13,GND_13*%
%TO.N,GND*%
X137250000Y-56540000D03*
%TO.P,U1,14,5V_14*%
%TO.N,+5V*%
X137250000Y-54000000D03*
%TD*%
D24*
%TO.N,Net-(D8-A)*%
X158250000Y-80500000D03*
%TO.N,GND*%
X125300000Y-98300000D03*
X121000000Y-110750000D03*
X120500000Y-122000000D03*
%TO.N,Net-(D12-DOUT)*%
X119750000Y-103500000D03*
X154750000Y-93000000D03*
%TO.N,Net-(D11-DOUT)*%
X131750000Y-88500000D03*
X157500000Y-84500000D03*
%TO.N,Net-(D17-DOUT)*%
X158000000Y-122500000D03*
X127750000Y-126250000D03*
%TO.N,Net-(D1-DOUT)*%
X141000000Y-86250000D03*
X127750000Y-79250000D03*
%TO.N,LED*%
X122000000Y-85500000D03*
X125000000Y-81500000D03*
%TO.N,Col 2*%
X165500000Y-114500000D03*
%TO.N,Net-(D16-DOUT)*%
X141000000Y-125000000D03*
X144250000Y-129350000D03*
%TO.N,Net-(D15-DOUT)*%
X119500000Y-123000000D03*
X125000000Y-117250000D03*
%TO.N,Row 1*%
X146750000Y-91250000D03*
X146500000Y-83750000D03*
X148250000Y-70750000D03*
X151000000Y-110250000D03*
X132250000Y-123000000D03*
%TO.N,Net-(D9-A)*%
X159000000Y-99250000D03*
%TO.N,Net-(D14-DOUT)*%
X131750000Y-106750000D03*
X157750000Y-103750000D03*
%TD*%
%TO.N,Row 0*%
D25*
X107500000Y-99190000D02*
X107750000Y-99440000D01*
X107500000Y-87060000D02*
X107500000Y-99190000D01*
X107500000Y-116940000D02*
X107750000Y-116940000D01*
X107500000Y-84270101D02*
X107500000Y-87060000D01*
X107500000Y-116940000D02*
X106650000Y-116090000D01*
X107750000Y-116940000D02*
X108750000Y-117940000D01*
X106650000Y-116090000D02*
X106650000Y-100540000D01*
X106650000Y-100540000D02*
X107750000Y-99440000D01*
%TO.N,Col 0*%
X127150000Y-83198529D02*
X127150000Y-79001471D01*
X119600000Y-84948529D02*
X122251471Y-87600000D01*
X152400000Y-55100000D02*
X152400000Y-72760000D01*
X122251471Y-87600000D02*
X122748529Y-87600000D01*
X157600000Y-77960000D02*
X138600000Y-77960000D01*
X152400000Y-72760000D02*
X157600000Y-77960000D01*
X153500000Y-54000000D02*
X152400000Y-55100000D01*
X119600000Y-77960000D02*
X119600000Y-84948529D01*
X122748529Y-87600000D02*
X127150000Y-83198529D01*
X128191471Y-77960000D02*
X138600000Y-77960000D01*
X127150000Y-79001471D02*
X128191471Y-77960000D01*
%TO.N,Net-(D8-A)*%
X151250000Y-80500000D02*
X158250000Y-80500000D01*
%TO.N,Row 2*%
X164750000Y-117940000D02*
X164750000Y-106060000D01*
X164750000Y-106060000D02*
X164500000Y-105810000D01*
X163400000Y-87910000D02*
X164750000Y-86560000D01*
X164500000Y-105810000D02*
X163400000Y-104710000D01*
X163400000Y-104710000D02*
X163400000Y-87910000D01*
%TO.N,RNA*%
X114400000Y-52850000D02*
X107750000Y-59500000D01*
X138250000Y-66700000D02*
X139400000Y-65550000D01*
X139400000Y-65550000D02*
X139400000Y-53523654D01*
X138726346Y-52850000D02*
X114400000Y-52850000D01*
X139400000Y-53523654D02*
X138726346Y-52850000D01*
%TO.N,RNB*%
X138250000Y-69240000D02*
X112490000Y-69240000D01*
X112490000Y-69240000D02*
X107750000Y-64500000D01*
%TO.N,GND*%
X121000000Y-120522944D02*
X121000000Y-110750000D01*
X109050000Y-60700000D02*
X107750000Y-62000000D01*
X137163654Y-56540000D02*
X129250000Y-64453654D01*
X120500000Y-121022944D02*
X121000000Y-120522944D01*
X109050000Y-59750000D02*
X109050000Y-60700000D01*
X129250000Y-65060000D02*
X125971522Y-65060000D01*
X120011522Y-59100000D02*
X109700000Y-59100000D01*
X120500000Y-122000000D02*
X120500000Y-121022944D01*
X125300000Y-107700000D02*
X122250000Y-110750000D01*
X122250000Y-110750000D02*
X121000000Y-110750000D01*
X125971522Y-65060000D02*
X120011522Y-59100000D01*
X129250000Y-64453654D02*
X129250000Y-65060000D01*
X138250000Y-56540000D02*
X137163654Y-56540000D01*
X125300000Y-98300000D02*
X125300000Y-107700000D01*
X109700000Y-59100000D02*
X109050000Y-59750000D01*
%TO.N,+5V*%
X137163654Y-54000000D02*
X129250000Y-61913654D01*
X138250000Y-54000000D02*
X137163654Y-54000000D01*
X129250000Y-61913654D02*
X129250000Y-62520000D01*
%TO.N,Net-(D12-DOUT)*%
X129500000Y-93000000D02*
X119750000Y-102750000D01*
X154750000Y-93000000D02*
X129500000Y-93000000D01*
X119750000Y-102750000D02*
X119750000Y-103500000D01*
%TO.N,Net-(D11-DOUT)*%
X159500000Y-92000000D02*
X160500000Y-91000000D01*
X160500000Y-87500000D02*
X157500000Y-84500000D01*
X131750000Y-88500000D02*
X131750000Y-91500000D01*
X160500000Y-91000000D02*
X160500000Y-87500000D01*
X131750000Y-91500000D02*
X132250000Y-92000000D01*
X132250000Y-92000000D02*
X159500000Y-92000000D01*
%TO.N,Net-(D17-DOUT)*%
X154086598Y-118690000D02*
X156033402Y-118690000D01*
X156033402Y-118690000D02*
X158000000Y-120656598D01*
X158000000Y-120656598D02*
X158000000Y-122750000D01*
X127750000Y-126250000D02*
X127750000Y-125966598D01*
X152710000Y-120066598D02*
X154086598Y-118690000D01*
X149426598Y-118730000D02*
X150763196Y-120066598D01*
X150763196Y-120066598D02*
X152710000Y-120066598D01*
X127750000Y-125966598D02*
X134986598Y-118730000D01*
X134986598Y-118730000D02*
X149426598Y-118730000D01*
%TO.N,Net-(D1-DOUT)*%
X137350000Y-79100000D02*
X139500000Y-81250000D01*
X127900000Y-79100000D02*
X137350000Y-79100000D01*
X139500000Y-84750000D02*
X141000000Y-86250000D01*
X127750000Y-79250000D02*
X127900000Y-79100000D01*
X139500000Y-81250000D02*
X139500000Y-84750000D01*
%TO.N,LED*%
X125000000Y-81500000D02*
X125000000Y-82500000D01*
X125000000Y-82500000D02*
X122000000Y-85500000D01*
%TO.N,Col 2*%
X160680000Y-119040000D02*
X157600000Y-115960000D01*
X165534744Y-119040000D02*
X160680000Y-119040000D01*
X119600000Y-122051471D02*
X118900000Y-122751471D01*
X165500000Y-114500000D02*
X165850000Y-114850000D01*
X157560000Y-116000000D02*
X157600000Y-115960000D01*
X119600000Y-116000000D02*
X119600000Y-122051471D01*
X125110101Y-123600000D02*
X132710101Y-116000000D01*
X118900000Y-123248529D02*
X119251471Y-123600000D01*
X119251471Y-123600000D02*
X125110101Y-123600000D01*
X138500000Y-116000000D02*
X157560000Y-116000000D01*
X165850000Y-118724744D02*
X165534744Y-119040000D01*
X165850000Y-114850000D02*
X165850000Y-118724744D01*
X132710101Y-116000000D02*
X138500000Y-116000000D01*
X118900000Y-122751471D02*
X118900000Y-123248529D01*
%TO.N,Net-(D7-A)*%
X127150000Y-126594744D02*
X129955256Y-129400000D01*
X129955256Y-129400000D02*
X139460000Y-129400000D01*
X127150000Y-122125787D02*
X127150000Y-126594744D01*
X132150000Y-118540000D02*
X130735787Y-118540000D01*
X139460000Y-129400000D02*
X140560000Y-130500000D01*
X130735787Y-118540000D02*
X127150000Y-122125787D01*
%TO.N,Net-(D4-A)*%
X108750000Y-121484366D02*
X111694366Y-118540000D01*
X111694366Y-118540000D02*
X113250000Y-118540000D01*
X108750000Y-125560000D02*
X108750000Y-121484366D01*
%TO.N,Net-(D16-DOUT)*%
X144250000Y-129350000D02*
X144250000Y-128250000D01*
X144250000Y-128250000D02*
X141000000Y-125000000D01*
%TO.N,Net-(D15-DOUT)*%
X125000000Y-117250000D02*
X125000000Y-119917056D01*
X125000000Y-119917056D02*
X121917056Y-123000000D01*
X121917056Y-123000000D02*
X119500000Y-123000000D01*
%TO.N,Row 1*%
X132250000Y-123000000D02*
X131500000Y-123750000D01*
X131500000Y-127750000D02*
X139365635Y-127750000D01*
X145750000Y-106310000D02*
X147060000Y-106310000D01*
X148250000Y-70750000D02*
X145750000Y-73250000D01*
X131500000Y-123750000D02*
X131500000Y-127750000D01*
X141015635Y-131600000D02*
X134040000Y-131600000D01*
X147060000Y-106310000D02*
X151000000Y-110250000D01*
X146750000Y-84000000D02*
X146750000Y-91250000D01*
X141660000Y-130955635D02*
X141015635Y-131600000D01*
X134040000Y-131600000D02*
X132940000Y-130500000D01*
X146500000Y-83750000D02*
X146750000Y-84000000D01*
X139365635Y-127750000D02*
X141660000Y-130044365D01*
X145750000Y-73250000D02*
X140810000Y-73250000D01*
X141660000Y-130044365D02*
X141660000Y-130955635D01*
%TO.N,Net-(D6-A)*%
X132250000Y-99500000D02*
X144940000Y-99500000D01*
X144940000Y-99500000D02*
X145750000Y-98690000D01*
%TO.N,Col 1*%
X151638529Y-96960000D02*
X138600000Y-96960000D01*
X154998529Y-92400000D02*
X155350000Y-92751471D01*
X155350000Y-93248529D02*
X151638529Y-96960000D01*
X153500000Y-56540000D02*
X155160000Y-56540000D01*
X119600000Y-97000000D02*
X124200000Y-92400000D01*
X163000000Y-64380000D02*
X163000000Y-91600000D01*
X157560000Y-96960000D02*
X157600000Y-97000000D01*
X138600000Y-96960000D02*
X157560000Y-96960000D01*
X163000000Y-91600000D02*
X157600000Y-97000000D01*
X155160000Y-56540000D02*
X163000000Y-64380000D01*
X155350000Y-92751471D02*
X155350000Y-93248529D01*
X124200000Y-92400000D02*
X154998529Y-92400000D01*
%TO.N,Net-(D9-A)*%
X151250000Y-99540000D02*
X158710000Y-99540000D01*
X158710000Y-99540000D02*
X159000000Y-99250000D01*
%TO.N,Net-(D14-DOUT)*%
X131750000Y-111250000D02*
X156500000Y-111250000D01*
X156500000Y-111250000D02*
X160750000Y-107000000D01*
X131750000Y-106750000D02*
X131750000Y-111250000D01*
X160750000Y-107000000D02*
X157750000Y-104000000D01*
X157750000Y-104000000D02*
X157750000Y-103750000D01*
%TO.N,Net-(D10-A)*%
X158197057Y-117400001D02*
X164750000Y-123952944D01*
X152349999Y-117400001D02*
X158197057Y-117400001D01*
X164750000Y-123952944D02*
X164750000Y-125560000D01*
X151250000Y-118500000D02*
X152349999Y-117400001D01*
%TD*%
M02*
