%TF.GenerationSoftware,KiCad,Pcbnew,10.0.3*%
%TF.CreationDate,2026-08-08T19:13:39-04:00*%
%TF.ProjectId,Macropad,4d616372-6f70-4616-942e-6b696361645f,rev?*%
%TF.SameCoordinates,Original*%
%TF.FileFunction,Soldermask,Top*%
%TF.FilePolarity,Negative*%
%FSLAX46Y46*%
G04 Gerber Fmt 4.6, Leading zero omitted, Abs format (unit mm)*
G04 Created by KiCad (PCBNEW 10.0.3) date 2026-08-08 19:13:39*
%MOMM*%
%LPD*%
G01*
G04 APERTURE LIST*
G04 Aperture macros list*
%AMRoundRect*
0 Rectangle with rounded corners*
0 $1 Rounding radius*
0 $2 $3 $4 $5 $6 $7 $8 $9 X,Y pos of 4 corners*
0 Add a 4 corners polygon primitive as box body*
4,1,4,$2,$3,$4,$5,$6,$7,$8,$9,$2,$3,0*
0 Add four circle primitives for the rounded corners*
1,1,$1+$1,$2,$3*
1,1,$1+$1,$4,$5*
1,1,$1+$1,$6,$7*
1,1,$1+$1,$8,$9*
0 Add four rect primitives between the rounded corners*
20,1,$1+$1,$2,$3,$4,$5,0*
20,1,$1+$1,$4,$5,$6,$7,0*
20,1,$1+$1,$6,$7,$8,$9,0*
20,1,$1+$1,$8,$9,$2,$3,0*%
G04 Aperture macros list end*
%ADD10RoundRect,0.250000X-0.550000X0.550000X-0.550000X-0.550000X0.550000X-0.550000X0.550000X0.550000X0*%
%ADD11C,1.600000*%
%ADD12C,1.700000*%
%ADD13C,4.000000*%
%ADD14C,2.200000*%
%ADD15RoundRect,0.250000X0.550000X-0.550000X0.550000X0.550000X-0.550000X0.550000X-0.550000X-0.550000X0*%
%ADD16R,2.000000X2.000000*%
%ADD17C,2.000000*%
%ADD18R,3.200000X2.000000*%
%ADD19RoundRect,0.170000X0.680000X-0.680000X0.680000X0.680000X-0.680000X0.680000X-0.680000X-0.680000X0*%
%ADD20RoundRect,0.250000X-0.550000X-0.550000X0.550000X-0.550000X0.550000X0.550000X-0.550000X0.550000X0*%
%ADD21RoundRect,0.250000X0.550000X0.550000X-0.550000X0.550000X-0.550000X-0.550000X0.550000X-0.550000X0*%
%ADD22R,3.500000X1.700000*%
%ADD23O,3.600000X1.700000*%
%ADD24O,3.700000X1.700000*%
G04 APERTURE END LIST*
D10*
%TO.C,D3*%
X107750000Y-99440000D03*
D11*
X107750000Y-107060000D03*
%TD*%
D12*
%TO.C,SW4*%
X130980000Y-83040000D03*
D13*
X136060000Y-83040000D03*
D12*
X141140000Y-83040000D03*
D14*
X138600000Y-77960000D03*
X132250000Y-80500000D03*
%TD*%
D12*
%TO.C,SW7*%
X149980000Y-83040000D03*
D13*
X155060000Y-83040000D03*
D12*
X160140000Y-83040000D03*
D14*
X157600000Y-77960000D03*
X151250000Y-80500000D03*
%TD*%
D15*
%TO.C,D8*%
X164750000Y-86560000D03*
D11*
X164750000Y-78940000D03*
%TD*%
D16*
%TO.C,SW10*%
X107750000Y-59500000D03*
D17*
X107750000Y-64500000D03*
X107750000Y-62000000D03*
D18*
X115250000Y-56400000D03*
X115250000Y-67600000D03*
D17*
X122250000Y-64500000D03*
X122250000Y-59500000D03*
%TD*%
D14*
%TO.C,REF\u002A\u002A*%
X100500000Y-133250000D03*
%TD*%
D12*
%TO.C,SW6*%
X130880000Y-121080000D03*
D13*
X135960000Y-121080000D03*
D12*
X141040000Y-121080000D03*
D14*
X138500000Y-116000000D03*
X132150000Y-118540000D03*
%TD*%
D19*
%TO.C,U2*%
X129250000Y-65060000D03*
D12*
X129250000Y-62520000D03*
X129250000Y-59980000D03*
X129250000Y-57440000D03*
%TD*%
%TO.C,SW3*%
X111980000Y-121080000D03*
D13*
X117060000Y-121080000D03*
D12*
X122140000Y-121080000D03*
D14*
X119600000Y-116000000D03*
X113250000Y-118540000D03*
%TD*%
D15*
%TO.C,D6*%
X145750000Y-106310000D03*
D11*
X145750000Y-98690000D03*
%TD*%
D12*
%TO.C,SW8*%
X149980000Y-102080000D03*
D13*
X155060000Y-102080000D03*
D12*
X160140000Y-102080000D03*
D14*
X157600000Y-97000000D03*
X151250000Y-99540000D03*
%TD*%
%TO.C,REF\u002A\u002A*%
X172800000Y-46910000D03*
%TD*%
D12*
%TO.C,SW2*%
X111980000Y-102080000D03*
D13*
X117060000Y-102080000D03*
D12*
X122140000Y-102080000D03*
D14*
X119600000Y-97000000D03*
X113250000Y-99540000D03*
%TD*%
D15*
%TO.C,D2*%
X107500000Y-87060000D03*
D11*
X107500000Y-79440000D03*
%TD*%
D14*
%TO.C,REF\u002A\u002A*%
X100250000Y-46910000D03*
%TD*%
D12*
%TO.C,SW1*%
X111980000Y-83040000D03*
D13*
X117060000Y-83040000D03*
D12*
X122140000Y-83040000D03*
D14*
X119600000Y-77960000D03*
X113250000Y-80500000D03*
%TD*%
D12*
%TO.C,SW9*%
X149980000Y-121040000D03*
D13*
X155060000Y-121040000D03*
D12*
X160140000Y-121040000D03*
D14*
X157600000Y-115960000D03*
X151250000Y-118500000D03*
%TD*%
%TO.C,REF\u002A\u002A*%
X172500000Y-133250000D03*
%TD*%
D10*
%TO.C,D4*%
X108750000Y-117940000D03*
D11*
X108750000Y-125560000D03*
%TD*%
D15*
%TO.C,D9*%
X164500000Y-105810000D03*
D11*
X164500000Y-98190000D03*
%TD*%
D10*
%TO.C,D10*%
X164750000Y-117940000D03*
D11*
X164750000Y-125560000D03*
%TD*%
D20*
%TO.C,D7*%
X132940000Y-130500000D03*
D11*
X140560000Y-130500000D03*
%TD*%
D21*
%TO.C,D5*%
X140810000Y-73250000D03*
D11*
X133190000Y-73250000D03*
%TD*%
D12*
%TO.C,SW5*%
X130980000Y-102040000D03*
D13*
X136060000Y-102040000D03*
D12*
X141140000Y-102040000D03*
D14*
X138600000Y-96960000D03*
X132250000Y-99500000D03*
%TD*%
D22*
%TO.C,U1*%
X154500000Y-54000000D03*
D23*
X154500000Y-56540000D03*
X154500000Y-59080000D03*
X154500000Y-61620000D03*
X154500000Y-64160000D03*
X154500000Y-66700000D03*
X154500000Y-69240000D03*
X137250000Y-69240000D03*
X137250000Y-66700000D03*
X137250000Y-64160000D03*
D24*
X137250000Y-61620000D03*
X137250000Y-59080000D03*
X137250000Y-56540000D03*
X137250000Y-54000000D03*
%TD*%
M02*
